<svg width="278" height="289" viewBox="0 0 278 289" fill="none" xmlns="http://www.w3.org/2000/svg">
<g filter="url(#filter0_d_212971_2563)">
<rect x="13" y="13" width="252" height="263" rx="24" fill="white" shape-rendering="crispEdges"/>
<rect x="29" y="29" width="113" height="27" rx="8" fill="#0038FF"/>
<path d="M54.0455 36.3636H55.4545V44.0682C55.4545 44.8636 55.267 45.5739 54.892 46.1989C54.5208 46.8201 53.9962 47.3106 53.3182 47.6705C52.6402 48.0265 51.8447 48.2045 50.9318 48.2045C50.0189 48.2045 49.2235 48.0265 48.5455 47.6705C47.8674 47.3106 47.3409 46.8201 46.9659 46.1989C46.5947 45.5739 46.4091 44.8636 46.4091 44.0682V36.3636H47.8182V43.9545C47.8182 44.5227 47.9432 45.0284 48.1932 45.4716C48.4432 45.911 48.7992 46.2576 49.2614 46.5114C49.7273 46.7614 50.2841 46.8864 50.9318 46.8864C51.5795 46.8864 52.1364 46.7614 52.6023 46.5114C53.0682 46.2576 53.4242 45.911 53.6705 45.4716C53.9205 45.0284 54.0455 44.5227 54.0455 43.9545V36.3636ZM64.2685 41.2273L63.0639 41.5682C62.9882 41.3674 62.8764 41.1723 62.7287 40.983C62.5848 40.7898 62.3878 40.6307 62.1378 40.5057C61.8878 40.3807 61.5677 40.3182 61.1776 40.3182C60.6435 40.3182 60.1984 40.4413 59.8423 40.6875C59.4901 40.9299 59.3139 41.2386 59.3139 41.6136C59.3139 41.947 59.4351 42.2102 59.6776 42.4034C59.92 42.5966 60.2988 42.7576 60.8139 42.8864L62.1094 43.2045C62.8897 43.3939 63.4711 43.6837 63.8537 44.0739C64.2363 44.4602 64.4276 44.9583 64.4276 45.5682C64.4276 46.0682 64.2836 46.5152 63.9957 46.9091C63.7116 47.303 63.3139 47.6136 62.8026 47.8409C62.2912 48.0682 61.6965 48.1818 61.0185 48.1818C60.1283 48.1818 59.3916 47.9886 58.8082 47.6023C58.2249 47.2159 57.8556 46.6515 57.7003 45.9091L58.973 45.5909C59.0942 46.0606 59.3234 46.4129 59.6605 46.6477C60.0014 46.8826 60.4465 47 60.9957 47C61.6207 47 62.117 46.8674 62.4844 46.6023C62.8556 46.3333 63.0412 46.0114 63.0412 45.6364C63.0412 45.3333 62.9351 45.0795 62.723 44.875C62.5109 44.6667 62.1851 44.5114 61.7457 44.4091L60.2912 44.0682C59.492 43.8788 58.9048 43.5852 58.5298 43.1875C58.1586 42.786 57.973 42.2841 57.973 41.6818C57.973 41.1894 58.1113 40.7538 58.3878 40.375C58.6681 39.9962 59.0488 39.6989 59.5298 39.483C60.0147 39.267 60.5639 39.1591 61.1776 39.1591C62.0412 39.1591 62.7192 39.3485 63.2116 39.7273C63.7079 40.1061 64.0601 40.6061 64.2685 41.2273ZM70.1051 48.1818C69.2642 48.1818 68.5388 47.9962 67.929 47.625C67.3229 47.25 66.8551 46.7273 66.5256 46.0568C66.1998 45.3826 66.0369 44.5985 66.0369 43.7045C66.0369 42.8106 66.1998 42.0227 66.5256 41.3409C66.8551 40.6553 67.3134 40.1212 67.9006 39.7386C68.4915 39.3523 69.1809 39.1591 69.9688 39.1591C70.4233 39.1591 70.8722 39.2348 71.3153 39.3864C71.7585 39.5379 72.1619 39.7841 72.5256 40.125C72.8892 40.4621 73.179 40.9091 73.3949 41.4659C73.6108 42.0227 73.7188 42.7083 73.7188 43.5227V44.0909L66.9915 44.0909V42.9318H72.3551C72.3551 42.4394 72.2566 42 72.0597 41.6136C71.8665 41.2273 71.59 40.9223 71.2301 40.6989C70.8741 40.4754 70.4536 40.3636 69.9688 40.3636C69.4347 40.3636 68.9725 40.4962 68.5824 40.7614C68.196 41.0227 67.8987 41.3636 67.6903 41.7841C67.482 42.2045 67.3778 42.6553 67.3778 43.1364V43.9091C67.3778 44.5682 67.4915 45.1269 67.7188 45.5852C67.9498 46.0398 68.2699 46.3864 68.679 46.625C69.0881 46.8598 69.5634 46.9773 70.1051 46.9773C70.4574 46.9773 70.7756 46.928 71.0597 46.8295C71.3475 46.7273 71.5956 46.5758 71.804 46.375C72.0123 46.1705 72.1733 45.9167 72.2869 45.6136L73.5824 45.9773C73.446 46.4167 73.2169 46.803 72.8949 47.1364C72.5729 47.4659 72.1752 47.7235 71.7017 47.9091C71.2282 48.0909 70.696 48.1818 70.1051 48.1818ZM75.7585 48V39.2727H77.054V40.5909H77.1449C77.304 40.1591 77.5919 39.8087 78.0085 39.5398C78.4252 39.2708 78.8949 39.1364 79.4176 39.1364C79.5161 39.1364 79.6392 39.1383 79.7869 39.142C79.9347 39.1458 80.0464 39.1515 80.1222 39.1591V40.5227C80.0767 40.5114 79.9725 40.4943 79.8097 40.4716C79.6506 40.4451 79.482 40.4318 79.304 40.4318C78.8797 40.4318 78.5009 40.5208 78.1676 40.6989C77.8381 40.8731 77.5767 41.1155 77.3835 41.4261C77.1941 41.733 77.0994 42.0833 77.0994 42.4773V48H75.7585ZM92.7571 39.2727C92.6889 38.697 92.4124 38.25 91.9276 37.9318C91.4427 37.6136 90.848 37.4545 90.1435 37.4545C89.6283 37.4545 89.1776 37.5379 88.7912 37.7045C88.4086 37.8712 88.1094 38.1004 87.8935 38.392C87.6813 38.6837 87.5753 39.0152 87.5753 39.3864C87.5753 39.697 87.6491 39.964 87.7969 40.1875C87.9484 40.4072 88.1416 40.5909 88.3764 40.7386C88.6113 40.8826 88.8575 41.0019 89.1151 41.0966C89.3726 41.1875 89.6094 41.2614 89.8253 41.3182L91.0071 41.6364C91.3101 41.7159 91.6473 41.8258 92.0185 41.9659C92.3935 42.1061 92.7514 42.2973 93.0923 42.5398C93.437 42.7784 93.7211 43.0852 93.9446 43.4602C94.1681 43.8352 94.2798 44.2955 94.2798 44.8409C94.2798 45.4697 94.1151 46.0379 93.7855 46.5455C93.4598 47.053 92.9825 47.4564 92.3537 47.7557C91.7287 48.0549 90.9692 48.2045 90.0753 48.2045C89.242 48.2045 88.5204 48.0701 87.9105 47.8011C87.3045 47.5322 86.8272 47.1572 86.4787 46.6761C86.134 46.1951 85.9389 45.6364 85.8935 45H87.348C87.3859 45.4394 87.5336 45.803 87.7912 46.0909C88.0526 46.375 88.3821 46.5871 88.7798 46.7273C89.1813 46.8636 89.6132 46.9318 90.0753 46.9318C90.6132 46.9318 91.0961 46.8447 91.5241 46.6705C91.9522 46.4924 92.2912 46.2462 92.5412 45.9318C92.7912 45.6136 92.9162 45.2424 92.9162 44.8182C92.9162 44.4318 92.8082 44.1174 92.5923 43.875C92.3764 43.6326 92.0923 43.4356 91.7401 43.2841C91.3878 43.1326 91.0071 43 90.598 42.8864L89.1662 42.4773C88.2571 42.2159 87.5374 41.8428 87.0071 41.358C86.4768 40.8731 86.2116 40.2386 86.2116 39.4545C86.2116 38.803 86.3878 38.2348 86.7401 37.75C87.0961 37.2614 87.5734 36.8826 88.1719 36.6136C88.7741 36.3409 89.4465 36.2045 90.1889 36.2045C90.9389 36.2045 91.6056 36.339 92.1889 36.608C92.7723 36.8731 93.2344 37.2367 93.5753 37.6989C93.92 38.161 94.1018 38.6856 94.1207 39.2727H92.7571ZM100.21 39.2727V40.4091H95.6875V39.2727H100.21ZM97.0057 37.1818H98.3466V45.5C98.3466 45.8788 98.4015 46.1629 98.5114 46.3523C98.625 46.5379 98.7689 46.6629 98.9432 46.7273C99.1212 46.7879 99.3087 46.8182 99.5057 46.8182C99.6534 46.8182 99.7746 46.8106 99.8693 46.7955C99.964 46.7765 100.04 46.7614 100.097 46.75L100.369 47.9545C100.278 47.9886 100.152 48.0227 99.9886 48.0568C99.8258 48.0947 99.6193 48.1136 99.3693 48.1136C98.9905 48.1136 98.6193 48.0322 98.2557 47.8693C97.8958 47.7064 97.5966 47.4583 97.358 47.125C97.1231 46.7917 97.0057 46.3712 97.0057 45.8636V37.1818ZM105.679 48.1818C104.891 48.1818 104.2 47.9943 103.605 47.6193C103.014 47.2443 102.552 46.7197 102.219 46.0455C101.889 45.3712 101.724 44.5833 101.724 43.6818C101.724 42.7727 101.889 41.9792 102.219 41.3011C102.552 40.6231 103.014 40.0966 103.605 39.7216C104.2 39.3466 104.891 39.1591 105.679 39.1591C106.467 39.1591 107.156 39.3466 107.747 39.7216C108.342 40.0966 108.804 40.6231 109.134 41.3011C109.467 41.9792 109.634 42.7727 109.634 43.6818C109.634 44.5833 109.467 45.3712 109.134 46.0455C108.804 46.7197 108.342 47.2443 107.747 47.6193C107.156 47.9943 106.467 48.1818 105.679 48.1818ZM105.679 46.9773C106.277 46.9773 106.77 46.8239 107.156 46.517C107.543 46.2102 107.829 45.8068 108.014 45.3068C108.2 44.8068 108.293 44.2652 108.293 43.6818C108.293 43.0985 108.2 42.5549 108.014 42.0511C107.829 41.5473 107.543 41.1402 107.156 40.8295C106.77 40.5189 106.277 40.3636 105.679 40.3636C105.08 40.3636 104.588 40.5189 104.202 40.8295C103.815 41.1402 103.529 41.5473 103.344 42.0511C103.158 42.5549 103.065 43.0985 103.065 43.6818C103.065 44.2652 103.158 44.8068 103.344 45.3068C103.529 45.8068 103.815 46.2102 104.202 46.517C104.588 46.8239 105.08 46.9773 105.679 46.9773ZM111.68 48V39.2727H112.976V40.5909H113.067C113.226 40.1591 113.514 39.8087 113.93 39.5398C114.347 39.2708 114.817 39.1364 115.339 39.1364C115.438 39.1364 115.561 39.1383 115.709 39.142C115.857 39.1458 115.968 39.1515 116.044 39.1591V40.5227C115.999 40.5114 115.894 40.4943 115.732 40.4716C115.572 40.4451 115.404 40.4318 115.226 40.4318C114.802 40.4318 114.423 40.5208 114.089 40.6989C113.76 40.8731 113.499 41.1155 113.305 41.4261C113.116 41.733 113.021 42.0833 113.021 42.4773V48H111.68ZM118.763 51.2727C118.536 51.2727 118.333 51.2538 118.155 51.2159C117.977 51.1818 117.854 51.1477 117.786 51.1136L118.126 49.9318C118.452 50.0152 118.74 50.0455 118.99 50.0227C119.24 50 119.462 49.8883 119.655 49.6875C119.852 49.4905 120.032 49.1705 120.195 48.7273L120.445 48.0455L117.217 39.2727H118.672L121.081 46.2273H121.172L123.581 39.2727H125.036L121.331 49.2727C121.164 49.7235 120.958 50.0966 120.712 50.392C120.465 50.6913 120.179 50.9129 119.854 51.0568C119.532 51.2008 119.168 51.2727 118.763 51.2727Z" fill="white"/>
<path d="M30.0114 95V83.3636H32.4716V88.4943H32.625L36.8125 83.3636H39.7614L35.4432 88.5739L39.8125 95H36.8693L33.6818 90.2159L32.4716 91.6932V95H30.0114ZM44.2997 95.1705C43.4171 95.1705 42.6539 94.983 42.0099 94.608C41.3698 94.2292 40.8755 93.7027 40.527 93.0284C40.1785 92.3504 40.0043 91.5644 40.0043 90.6705C40.0043 89.7689 40.1785 88.9811 40.527 88.3068C40.8755 87.6288 41.3698 87.1023 42.0099 86.7273C42.6539 86.3485 43.4171 86.1591 44.2997 86.1591C45.1823 86.1591 45.9437 86.3485 46.5838 86.7273C47.2277 87.1023 47.724 87.6288 48.0724 88.3068C48.4209 88.9811 48.5952 89.7689 48.5952 90.6705C48.5952 91.5644 48.4209 92.3504 48.0724 93.0284C47.724 93.7027 47.2277 94.2292 46.5838 94.608C45.9437 94.983 45.1823 95.1705 44.2997 95.1705ZM44.3111 93.2955C44.7126 93.2955 45.0478 93.1818 45.3168 92.9545C45.5857 92.7235 45.7884 92.4091 45.9247 92.0114C46.0649 91.6136 46.1349 91.161 46.1349 90.6534C46.1349 90.1458 46.0649 89.6932 45.9247 89.2955C45.7884 88.8977 45.5857 88.5833 45.3168 88.3523C45.0478 88.1212 44.7126 88.0057 44.3111 88.0057C43.9058 88.0057 43.5649 88.1212 43.2884 88.3523C43.0156 88.5833 42.8092 88.8977 42.669 89.2955C42.5327 89.6932 42.4645 90.1458 42.4645 90.6534C42.4645 91.161 42.5327 91.6136 42.669 92.0114C42.8092 92.4091 43.0156 92.7235 43.2884 92.9545C43.5649 93.1818 43.9058 93.2955 44.3111 93.2955ZM54.1122 95.1705C53.2183 95.1705 52.4493 94.9811 51.8054 94.6023C51.1652 94.2197 50.6728 93.6894 50.3281 93.0114C49.9872 92.3333 49.8168 91.553 49.8168 90.6705C49.8168 89.7765 49.9891 88.9924 50.3338 88.3182C50.6823 87.6402 51.1766 87.1117 51.8168 86.733C52.4569 86.3504 53.2183 86.1591 54.1009 86.1591C54.8622 86.1591 55.5289 86.2973 56.1009 86.5739C56.6728 86.8504 57.1255 87.2386 57.4588 87.7386C57.7921 88.2386 57.9759 88.8258 58.0099 89.5H55.7259C55.6615 89.0644 55.491 88.714 55.2145 88.4489C54.9418 88.1799 54.5838 88.0455 54.1406 88.0455C53.7656 88.0455 53.438 88.1477 53.1577 88.3523C52.8812 88.553 52.6652 88.8466 52.5099 89.233C52.3546 89.6193 52.277 90.0871 52.277 90.6364C52.277 91.1932 52.3527 91.6667 52.5043 92.0568C52.6596 92.447 52.8774 92.7443 53.1577 92.9489C53.438 93.1534 53.7656 93.2557 54.1406 93.2557C54.4171 93.2557 54.6652 93.1989 54.8849 93.0852C55.1084 92.9716 55.2921 92.8068 55.4361 92.5909C55.5838 92.3712 55.6804 92.108 55.7259 91.8011H58.0099C57.9721 92.4678 57.7902 93.0549 57.4645 93.5625C57.1425 94.0663 56.6974 94.4602 56.1293 94.7443C55.5611 95.0284 54.8887 95.1705 54.1122 95.1705ZM61.9801 89.9545V95H59.5597V83.3636H61.9119V87.8125H62.0142C62.2112 87.2973 62.5294 86.8939 62.9688 86.6023C63.4081 86.3068 63.9593 86.1591 64.6222 86.1591C65.2282 86.1591 65.7566 86.2917 66.2074 86.5568C66.6619 86.8182 67.0142 87.1951 67.2642 87.6875C67.518 88.1761 67.643 88.7614 67.6392 89.4432V95H65.2188V89.875C65.2225 89.3371 65.0862 88.9186 64.8097 88.6193C64.5369 88.3201 64.1544 88.1705 63.6619 88.1705C63.3324 88.1705 63.0407 88.2405 62.7869 88.3807C62.5369 88.5208 62.34 88.7254 62.196 88.9943C62.0559 89.2595 61.9839 89.5795 61.9801 89.9545ZM71.2656 95L68.8906 86.2727H71.3395L72.6918 92.1364H72.7713L74.1804 86.2727H76.5838L78.0156 92.1023H78.0895L79.419 86.2727H81.8622L79.4929 95H76.9304L75.4304 89.5114H75.3224L73.8224 95H71.2656ZM86.9119 95.1705C86.0142 95.1705 85.2415 94.9886 84.5938 94.625C83.9498 94.2576 83.4536 93.7386 83.1051 93.0682C82.7566 92.3939 82.5824 91.5966 82.5824 90.6761C82.5824 89.7784 82.7566 88.9905 83.1051 88.3125C83.4536 87.6345 83.9441 87.1061 84.5767 86.7273C85.2131 86.3485 85.9593 86.1591 86.8153 86.1591C87.3911 86.1591 87.9271 86.2519 88.4233 86.4375C88.9233 86.6193 89.3589 86.8939 89.7301 87.2614C90.1051 87.6288 90.3968 88.0909 90.6051 88.6477C90.8134 89.2008 90.9176 89.8485 90.9176 90.5909V91.2557H83.5483V89.7557H88.6392C88.6392 89.4072 88.5634 89.0985 88.4119 88.8295C88.2604 88.5606 88.0502 88.3504 87.7812 88.1989C87.5161 88.0436 87.2074 87.9659 86.8551 87.9659C86.4877 87.9659 86.1619 88.0511 85.8778 88.2216C85.5975 88.3883 85.3778 88.6136 85.2188 88.8977C85.0597 89.178 84.9782 89.4905 84.9744 89.8352V91.2614C84.9744 91.6932 85.054 92.0663 85.2131 92.3807C85.3759 92.6951 85.6051 92.9375 85.9006 93.108C86.196 93.2784 86.5464 93.3636 86.9517 93.3636C87.2206 93.3636 87.4669 93.3258 87.6903 93.25C87.9138 93.1742 88.1051 93.0606 88.2642 92.9091C88.4233 92.7576 88.5445 92.572 88.6278 92.3523L90.8665 92.5C90.7528 93.0379 90.5199 93.5076 90.1676 93.9091C89.8191 94.3068 89.3684 94.6174 88.8153 94.8409C88.2661 95.0606 87.6316 95.1705 86.9119 95.1705ZM94.9176 83.3636V95H92.4972V83.3636H94.9176ZM101.499 86.2727V88.0909H96.2429V86.2727H101.499ZM97.4361 84.1818H99.8565V92.3182C99.8565 92.5417 99.8906 92.7159 99.9588 92.8409C100.027 92.9621 100.122 93.0473 100.243 93.0966C100.368 93.1458 100.512 93.1705 100.675 93.1705C100.788 93.1705 100.902 93.161 101.016 93.142C101.129 93.1193 101.216 93.1023 101.277 93.0909L101.658 94.892C101.536 94.9299 101.366 94.9735 101.146 95.0227C100.927 95.0758 100.66 95.108 100.345 95.1193C99.7618 95.142 99.2505 95.0644 98.8111 94.8864C98.3755 94.7083 98.0365 94.4318 97.794 94.0568C97.5516 93.6818 97.4323 93.2083 97.4361 92.6364V84.1818ZM106.824 95V83.3636H111.415C112.297 83.3636 113.049 83.5322 113.67 83.8693C114.292 84.2027 114.765 84.6667 115.091 85.2614C115.42 85.8523 115.585 86.5341 115.585 87.3068C115.585 88.0795 115.419 88.7614 115.085 89.3523C114.752 89.9432 114.269 90.4034 113.636 90.733C113.008 91.0625 112.246 91.2273 111.352 91.2273H108.426V89.2557H110.955C111.428 89.2557 111.818 89.1742 112.125 89.0114C112.436 88.8447 112.667 88.6155 112.818 88.3239C112.973 88.0284 113.051 87.6894 113.051 87.3068C113.051 86.9205 112.973 86.5833 112.818 86.2955C112.667 86.0038 112.436 85.7784 112.125 85.6193C111.814 85.4564 111.42 85.375 110.943 85.375H109.284V95H106.824ZM119.392 95.1648C118.835 95.1648 118.339 95.0682 117.903 94.875C117.468 94.678 117.123 94.3883 116.869 94.0057C116.619 93.6193 116.494 93.1383 116.494 92.5625C116.494 92.0777 116.583 91.6705 116.761 91.3409C116.939 91.0114 117.182 90.7462 117.489 90.5455C117.795 90.3447 118.144 90.1932 118.534 90.0909C118.928 89.9886 119.341 89.9167 119.773 89.875C120.28 89.822 120.689 89.7727 121 89.7273C121.311 89.678 121.536 89.6061 121.676 89.5114C121.816 89.4167 121.886 89.2765 121.886 89.0909V89.0568C121.886 88.697 121.773 88.4186 121.545 88.2216C121.322 88.0246 121.004 87.9261 120.591 87.9261C120.155 87.9261 119.809 88.0227 119.551 88.2159C119.294 88.4053 119.123 88.6439 119.04 88.9318L116.801 88.75C116.915 88.2197 117.138 87.7614 117.472 87.375C117.805 86.9848 118.235 86.6856 118.761 86.4773C119.292 86.2652 119.905 86.1591 120.602 86.1591C121.087 86.1591 121.551 86.2159 121.994 86.3295C122.441 86.4432 122.837 86.6193 123.182 86.858C123.53 87.0966 123.805 87.4034 124.006 87.7784C124.206 88.1496 124.307 88.5947 124.307 89.1136V95H122.011V93.7898H121.943C121.803 94.0625 121.616 94.303 121.381 94.5114C121.146 94.7159 120.864 94.8769 120.534 94.9943C120.205 95.108 119.824 95.1648 119.392 95.1648ZM120.085 93.4943C120.441 93.4943 120.756 93.4242 121.028 93.2841C121.301 93.1402 121.515 92.947 121.67 92.7045C121.826 92.4621 121.903 92.1875 121.903 91.8807V90.9545C121.828 91.0038 121.723 91.0492 121.591 91.0909C121.462 91.1288 121.316 91.1648 121.153 91.1989C120.991 91.2292 120.828 91.2576 120.665 91.2841C120.502 91.3068 120.354 91.3277 120.222 91.3466C119.938 91.3883 119.689 91.4545 119.477 91.5455C119.265 91.6364 119.1 91.7595 118.983 91.9148C118.866 92.0663 118.807 92.2557 118.807 92.483C118.807 92.8125 118.926 93.0644 119.165 93.2386C119.407 93.4091 119.714 93.4943 120.085 93.4943ZM130.116 98.4545C129.332 98.4545 128.66 98.3466 128.099 98.1307C127.543 97.9186 127.099 97.6288 126.77 97.2614C126.44 96.8939 126.226 96.4811 126.128 96.0227L128.366 95.7216C128.435 95.8958 128.543 96.0587 128.69 96.2102C128.838 96.3617 129.033 96.483 129.276 96.5739C129.522 96.6686 129.821 96.7159 130.173 96.7159C130.7 96.7159 131.134 96.5871 131.474 96.3295C131.819 96.0758 131.991 95.6496 131.991 95.0511V93.4545H131.889C131.783 93.697 131.624 93.9261 131.412 94.142C131.2 94.358 130.927 94.5341 130.594 94.6705C130.26 94.8068 129.863 94.875 129.401 94.875C128.745 94.875 128.149 94.7235 127.611 94.4205C127.077 94.1136 126.651 93.6458 126.332 93.017C126.018 92.3845 125.861 91.5852 125.861 90.6193C125.861 89.6307 126.022 88.8049 126.344 88.142C126.666 87.4792 127.094 86.983 127.628 86.6534C128.166 86.3239 128.755 86.1591 129.395 86.1591C129.884 86.1591 130.293 86.2424 130.622 86.4091C130.952 86.572 131.217 86.7765 131.418 87.0227C131.622 87.2652 131.779 87.5038 131.889 87.7386H131.98V86.2727H134.384V95.0852C134.384 95.8277 134.202 96.4489 133.838 96.9489C133.474 97.4489 132.971 97.8239 132.327 98.0739C131.687 98.3277 130.95 98.4545 130.116 98.4545ZM130.168 93.0568C130.558 93.0568 130.887 92.9602 131.156 92.767C131.429 92.5701 131.637 92.2898 131.781 91.9261C131.929 91.5587 132.003 91.1193 132.003 90.608C132.003 90.0966 131.931 89.6534 131.787 89.2784C131.643 88.8996 131.435 88.6061 131.162 88.3977C130.889 88.1894 130.558 88.0852 130.168 88.0852C129.77 88.0852 129.435 88.1932 129.162 88.4091C128.889 88.6212 128.683 88.9167 128.543 89.2955C128.402 89.6742 128.332 90.1117 128.332 90.608C128.332 91.1117 128.402 91.5473 128.543 91.9148C128.687 92.2784 128.893 92.5606 129.162 92.7614C129.435 92.9583 129.77 93.0568 130.168 93.0568ZM140.287 95.1705C139.389 95.1705 138.616 94.9886 137.969 94.625C137.325 94.2576 136.829 93.7386 136.48 93.0682C136.132 92.3939 135.957 91.5966 135.957 90.6761C135.957 89.7784 136.132 88.9905 136.48 88.3125C136.829 87.6345 137.319 87.1061 137.952 86.7273C138.588 86.3485 139.334 86.1591 140.19 86.1591C140.766 86.1591 141.302 86.2519 141.798 86.4375C142.298 86.6193 142.734 86.8939 143.105 87.2614C143.48 87.6288 143.772 88.0909 143.98 88.6477C144.188 89.2008 144.293 89.8485 144.293 90.5909V91.2557H136.923V89.7557H142.014C142.014 89.4072 141.938 89.0985 141.787 88.8295C141.635 88.5606 141.425 88.3504 141.156 88.1989C140.891 88.0436 140.582 87.9659 140.23 87.9659C139.863 87.9659 139.537 88.0511 139.253 88.2216C138.973 88.3883 138.753 88.6136 138.594 88.8977C138.435 89.178 138.353 89.4905 138.349 89.8352V91.2614C138.349 91.6932 138.429 92.0663 138.588 92.3807C138.751 92.6951 138.98 92.9375 139.276 93.108C139.571 93.2784 139.921 93.3636 140.327 93.3636C140.596 93.3636 140.842 93.3258 141.065 93.25C141.289 93.1742 141.48 93.0606 141.639 92.9091C141.798 92.7576 141.92 92.572 142.003 92.3523L144.241 92.5C144.128 93.0379 143.895 93.5076 143.543 93.9091C143.194 94.3068 142.743 94.6174 142.19 94.8409C141.641 95.0606 141.007 95.1705 140.287 95.1705ZM153.143 95.1705C152.34 95.1705 151.647 95.0265 151.064 94.7386C150.481 94.4508 150.032 94.0606 149.717 93.5682C149.407 93.072 149.251 92.5189 149.251 91.9091C149.251 91.4545 149.342 91.0511 149.524 90.6989C149.706 90.3466 149.96 90.0227 150.286 89.7273C150.611 89.428 150.99 89.1307 151.422 88.8352L153.678 87.3523C153.969 87.1667 154.183 86.9716 154.32 86.767C154.456 86.5587 154.524 86.3333 154.524 86.0909C154.524 85.8598 154.431 85.6458 154.246 85.4489C154.06 85.2519 153.797 85.1553 153.456 85.1591C153.229 85.1591 153.032 85.2102 152.865 85.3125C152.698 85.411 152.568 85.5417 152.473 85.7045C152.382 85.8636 152.337 86.0417 152.337 86.2386C152.337 86.4811 152.405 86.7273 152.541 86.9773C152.678 87.2273 152.859 87.4924 153.087 87.7727C153.314 88.0492 153.562 88.3485 153.831 88.6705L159.348 95H156.825L152.223 89.875C151.92 89.5303 151.617 89.1705 151.314 88.7955C151.015 88.4167 150.765 88.0152 150.564 87.5909C150.363 87.1629 150.263 86.6989 150.263 86.1989C150.263 85.6345 150.393 85.1269 150.655 84.6761C150.92 84.2254 151.291 83.8693 151.768 83.608C152.246 83.3428 152.803 83.2102 153.439 83.2102C154.06 83.2102 154.596 83.3371 155.047 83.5909C155.501 83.8409 155.85 84.1742 156.092 84.5909C156.339 85.0038 156.462 85.4583 156.462 85.9545C156.462 86.5038 156.325 87.0019 156.053 87.4489C155.784 87.892 155.405 88.2898 154.916 88.642L152.541 90.3523C152.219 90.5871 151.981 90.8277 151.825 91.0739C151.674 91.3163 151.598 91.5492 151.598 91.7727C151.598 92.0492 151.666 92.2973 151.803 92.517C151.939 92.7367 152.132 92.911 152.382 93.0398C152.632 93.1648 152.926 93.2273 153.263 93.2273C153.672 93.2273 154.075 93.1345 154.473 92.9489C154.875 92.7595 155.238 92.4924 155.564 92.1477C155.893 91.7992 156.157 91.3864 156.354 90.9091C156.551 90.4318 156.649 89.9034 156.649 89.3239H158.655C158.655 90.036 158.577 90.678 158.422 91.25C158.267 91.8182 158.051 92.3144 157.774 92.7386C157.498 93.1591 157.181 93.5038 156.825 93.7727C156.712 93.8447 156.602 93.9129 156.496 93.9773C156.39 94.0417 156.28 94.1098 156.166 94.1818C155.734 94.5303 155.251 94.7822 154.717 94.9375C154.187 95.0928 153.662 95.1705 153.143 95.1705ZM164.105 95V83.3636H168.696C169.575 83.3636 170.325 83.5208 170.946 83.8352C171.571 84.1458 172.046 84.5871 172.372 85.1591C172.702 85.7273 172.866 86.3958 172.866 87.1648C172.866 87.9375 172.7 88.6023 172.366 89.1591C172.033 89.7121 171.55 90.1364 170.918 90.4318C170.289 90.7273 169.527 90.875 168.634 90.875H165.56V88.8977H168.236C168.705 88.8977 169.096 88.8333 169.406 88.7045C169.717 88.5758 169.948 88.3826 170.099 88.125C170.255 87.8674 170.332 87.5473 170.332 87.1648C170.332 86.7784 170.255 86.4527 170.099 86.1875C169.948 85.9223 169.715 85.7216 169.401 85.5852C169.09 85.4451 168.698 85.375 168.224 85.375H166.565V95H164.105ZM170.389 89.7045L173.281 95H170.565L167.736 89.7045H170.389ZM178.396 95.1705C177.499 95.1705 176.726 94.9886 176.078 94.625C175.434 94.2576 174.938 93.7386 174.589 93.0682C174.241 92.3939 174.067 91.5966 174.067 90.6761C174.067 89.7784 174.241 88.9905 174.589 88.3125C174.938 87.6345 175.429 87.1061 176.061 86.7273C176.697 86.3485 177.444 86.1591 178.3 86.1591C178.875 86.1591 179.411 86.2519 179.908 86.4375C180.408 86.6193 180.843 86.8939 181.214 87.2614C181.589 87.6288 181.881 88.0909 182.089 88.6477C182.298 89.2008 182.402 89.8485 182.402 90.5909V91.2557H175.033V89.7557H180.124C180.124 89.4072 180.048 89.0985 179.896 88.8295C179.745 88.5606 179.535 88.3504 179.266 88.1989C179 88.0436 178.692 87.9659 178.339 87.9659C177.972 87.9659 177.646 88.0511 177.362 88.2216C177.082 88.3883 176.862 88.6136 176.703 88.8977C176.544 89.178 176.463 89.4905 176.459 89.8352V91.2614C176.459 91.6932 176.538 92.0663 176.697 92.3807C176.86 92.6951 177.089 92.9375 177.385 93.108C177.68 93.2784 178.031 93.3636 178.436 93.3636C178.705 93.3636 178.951 93.3258 179.175 93.25C179.398 93.1742 179.589 93.0606 179.749 92.9091C179.908 92.7576 180.029 92.572 180.112 92.3523L182.351 92.5C182.237 93.0379 182.004 93.5076 181.652 93.9091C181.304 94.3068 180.853 94.6174 180.3 94.8409C179.75 95.0606 179.116 95.1705 178.396 95.1705ZM187.925 95.1705C187.031 95.1705 186.262 94.9811 185.618 94.6023C184.978 94.2197 184.485 93.6894 184.141 93.0114C183.8 92.3333 183.629 91.553 183.629 90.6705C183.629 89.7765 183.802 88.9924 184.146 88.3182C184.495 87.6402 184.989 87.1117 185.629 86.733C186.269 86.3504 187.031 86.1591 187.913 86.1591C188.675 86.1591 189.341 86.2973 189.913 86.5739C190.485 86.8504 190.938 87.2386 191.271 87.7386C191.605 88.2386 191.788 88.8258 191.822 89.5H189.538C189.474 89.0644 189.304 88.714 189.027 88.4489C188.754 88.1799 188.396 88.0455 187.953 88.0455C187.578 88.0455 187.25 88.1477 186.97 88.3523C186.694 88.553 186.478 88.8466 186.322 89.233C186.167 89.6193 186.089 90.0871 186.089 90.6364C186.089 91.1932 186.165 91.6667 186.317 92.0568C186.472 92.447 186.69 92.7443 186.97 92.9489C187.25 93.1534 187.578 93.2557 187.953 93.2557C188.23 93.2557 188.478 93.1989 188.697 93.0852C188.921 92.9716 189.105 92.8068 189.249 92.5909C189.396 92.3712 189.493 92.108 189.538 91.8011H191.822C191.785 92.4678 191.603 93.0549 191.277 93.5625C190.955 94.0663 190.51 94.4602 189.942 94.7443C189.374 95.0284 188.701 95.1705 187.925 95.1705ZM193.372 95V86.2727H195.793V95H193.372ZM194.588 85.1477C194.228 85.1477 193.92 85.0284 193.662 84.7898C193.408 84.5473 193.281 84.2576 193.281 83.9205C193.281 83.5871 193.408 83.3011 193.662 83.0625C193.92 82.8201 194.228 82.6989 194.588 82.6989C194.948 82.6989 195.255 82.8201 195.509 83.0625C195.766 83.3011 195.895 83.5871 195.895 83.9205C195.895 84.2576 195.766 84.5473 195.509 84.7898C195.255 85.0284 194.948 85.1477 194.588 85.1477ZM197.732 98.2727V86.2727H200.118V87.7386H200.226C200.332 87.5038 200.485 87.2652 200.686 87.0227C200.891 86.7765 201.156 86.572 201.482 86.4091C201.811 86.2424 202.22 86.1591 202.709 86.1591C203.345 86.1591 203.932 86.3258 204.47 86.6591C205.008 86.9886 205.438 87.4867 205.76 88.1534C206.082 88.8163 206.243 89.6477 206.243 90.6477C206.243 91.6212 206.086 92.4432 205.771 93.1136C205.461 93.7803 205.036 94.286 204.499 94.6307C203.964 94.9716 203.366 95.142 202.703 95.142C202.233 95.142 201.834 95.0644 201.504 94.9091C201.179 94.7538 200.911 94.5587 200.703 94.3239C200.495 94.0852 200.336 93.8447 200.226 93.6023H200.152V98.2727H197.732ZM200.101 90.6364C200.101 91.1553 200.173 91.608 200.317 91.9943C200.461 92.3807 200.669 92.6818 200.942 92.8977C201.214 93.1098 201.546 93.2159 201.936 93.2159C202.33 93.2159 202.663 93.108 202.936 92.892C203.209 92.6723 203.415 92.3693 203.555 91.983C203.699 91.5928 203.771 91.1439 203.771 90.6364C203.771 90.1326 203.701 89.6894 203.561 89.3068C203.421 88.9242 203.214 88.625 202.942 88.4091C202.669 88.1932 202.334 88.0852 201.936 88.0852C201.542 88.0852 201.209 88.1894 200.936 88.3977C200.667 88.6061 200.461 88.9015 200.317 89.2841C200.173 89.6667 200.101 90.1174 200.101 90.6364ZM211.834 95.1705C210.936 95.1705 210.163 94.9886 209.516 94.625C208.872 94.2576 208.375 93.7386 208.027 93.0682C207.679 92.3939 207.504 91.5966 207.504 90.6761C207.504 89.7784 207.679 88.9905 208.027 88.3125C208.375 87.6345 208.866 87.1061 209.499 86.7273C210.135 86.3485 210.881 86.1591 211.737 86.1591C212.313 86.1591 212.849 86.2519 213.345 86.4375C213.845 86.6193 214.281 86.8939 214.652 87.2614C215.027 87.6288 215.319 88.0909 215.527 88.6477C215.735 89.2008 215.839 89.8485 215.839 90.5909V91.2557H208.47V89.7557H213.561C213.561 89.4072 213.485 89.0985 213.334 88.8295C213.182 88.5606 212.972 88.3504 212.703 88.1989C212.438 88.0436 212.129 87.9659 211.777 87.9659C211.41 87.9659 211.084 88.0511 210.8 88.2216C210.519 88.3883 210.3 88.6136 210.141 88.8977C209.982 89.178 209.9 89.4905 209.896 89.8352V91.2614C209.896 91.6932 209.976 92.0663 210.135 92.3807C210.298 92.6951 210.527 92.9375 210.822 93.108C211.118 93.2784 211.468 93.3636 211.874 93.3636C212.143 93.3636 212.389 93.3258 212.612 93.25C212.836 93.1742 213.027 93.0606 213.186 92.9091C213.345 92.7576 213.466 92.572 213.55 92.3523L215.788 92.5C215.675 93.0379 215.442 93.5076 215.089 93.9091C214.741 94.3068 214.29 94.6174 213.737 94.8409C213.188 95.0606 212.554 95.1705 211.834 95.1705ZM30.0114 114V102.364H34.6023C35.4811 102.364 36.2311 102.521 36.8523 102.835C37.4773 103.146 37.9527 103.587 38.2784 104.159C38.608 104.727 38.7727 105.396 38.7727 106.165C38.7727 106.937 38.6061 107.602 38.2727 108.159C37.9394 108.712 37.4564 109.136 36.8239 109.432C36.1951 109.727 35.4337 109.875 34.5398 109.875H31.4659V107.898H34.142C34.6117 107.898 35.0019 107.833 35.3125 107.705C35.6231 107.576 35.8542 107.383 36.0057 107.125C36.161 106.867 36.2386 106.547 36.2386 106.165C36.2386 105.778 36.161 105.453 36.0057 105.188C35.8542 104.922 35.6212 104.722 35.3068 104.585C34.9962 104.445 34.6042 104.375 34.1307 104.375H32.4716V114H30.0114ZM36.2955 108.705L39.1875 114H36.4716L33.642 108.705H36.2955ZM44.3026 114.17C43.4048 114.17 42.6321 113.989 41.9844 113.625C41.3404 113.258 40.8442 112.739 40.4957 112.068C40.1473 111.394 39.973 110.597 39.973 109.676C39.973 108.778 40.1473 107.991 40.4957 107.312C40.8442 106.634 41.3348 106.106 41.9673 105.727C42.6037 105.348 43.3499 105.159 44.206 105.159C44.7817 105.159 45.3177 105.252 45.8139 105.438C46.3139 105.619 46.7495 105.894 47.1207 106.261C47.4957 106.629 47.7874 107.091 47.9957 107.648C48.2041 108.201 48.3082 108.848 48.3082 109.591V110.256H40.9389V108.756H46.0298C46.0298 108.407 45.9541 108.098 45.8026 107.83C45.651 107.561 45.4408 107.35 45.1719 107.199C44.9067 107.044 44.598 106.966 44.2457 106.966C43.8783 106.966 43.5526 107.051 43.2685 107.222C42.9882 107.388 42.7685 107.614 42.6094 107.898C42.4503 108.178 42.3688 108.491 42.3651 108.835V110.261C42.3651 110.693 42.4446 111.066 42.6037 111.381C42.7666 111.695 42.9957 111.938 43.2912 112.108C43.5866 112.278 43.937 112.364 44.3423 112.364C44.6113 112.364 44.8575 112.326 45.081 112.25C45.3045 112.174 45.4957 112.061 45.6548 111.909C45.8139 111.758 45.9351 111.572 46.0185 111.352L48.2571 111.5C48.1435 112.038 47.9105 112.508 47.5582 112.909C47.2098 113.307 46.759 113.617 46.206 113.841C45.6567 114.061 45.0223 114.17 44.3026 114.17ZM53.831 114.17C52.937 114.17 52.1681 113.981 51.5241 113.602C50.884 113.22 50.3916 112.689 50.0469 112.011C49.706 111.333 49.5355 110.553 49.5355 109.67C49.5355 108.777 49.7079 107.992 50.0526 107.318C50.401 106.64 50.8954 106.112 51.5355 105.733C52.1757 105.35 52.937 105.159 53.8196 105.159C54.581 105.159 55.2476 105.297 55.8196 105.574C56.3916 105.85 56.8442 106.239 57.1776 106.739C57.5109 107.239 57.6946 107.826 57.7287 108.5H55.4446C55.3802 108.064 55.2098 107.714 54.9332 107.449C54.6605 107.18 54.3026 107.045 53.8594 107.045C53.4844 107.045 53.1567 107.148 52.8764 107.352C52.5999 107.553 52.384 107.847 52.2287 108.233C52.0734 108.619 51.9957 109.087 51.9957 109.636C51.9957 110.193 52.0715 110.667 52.223 111.057C52.3783 111.447 52.5961 111.744 52.8764 111.949C53.1567 112.153 53.4844 112.256 53.8594 112.256C54.1359 112.256 54.384 112.199 54.6037 112.085C54.8272 111.972 55.0109 111.807 55.1548 111.591C55.3026 111.371 55.3991 111.108 55.4446 110.801H57.7287C57.6908 111.468 57.509 112.055 57.1832 112.562C56.8613 113.066 56.4162 113.46 55.848 113.744C55.2798 114.028 54.6075 114.17 53.831 114.17ZM63.2216 114.17C62.339 114.17 61.5758 113.983 60.9318 113.608C60.2917 113.229 59.7973 112.703 59.4489 112.028C59.1004 111.35 58.9261 110.564 58.9261 109.67C58.9261 108.769 59.1004 107.981 59.4489 107.307C59.7973 106.629 60.2917 106.102 60.9318 105.727C61.5758 105.348 62.339 105.159 63.2216 105.159C64.1042 105.159 64.8655 105.348 65.5057 105.727C66.1496 106.102 66.6458 106.629 66.9943 107.307C67.3428 107.981 67.517 108.769 67.517 109.67C67.517 110.564 67.3428 111.35 66.9943 112.028C66.6458 112.703 66.1496 113.229 65.5057 113.608C64.8655 113.983 64.1042 114.17 63.2216 114.17ZM63.233 112.295C63.6345 112.295 63.9697 112.182 64.2386 111.955C64.5076 111.723 64.7102 111.409 64.8466 111.011C64.9867 110.614 65.0568 110.161 65.0568 109.653C65.0568 109.146 64.9867 108.693 64.8466 108.295C64.7102 107.898 64.5076 107.583 64.2386 107.352C63.9697 107.121 63.6345 107.006 63.233 107.006C62.8277 107.006 62.4867 107.121 62.2102 107.352C61.9375 107.583 61.7311 107.898 61.5909 108.295C61.4545 108.693 61.3864 109.146 61.3864 109.653C61.3864 110.161 61.4545 110.614 61.5909 111.011C61.7311 111.409 61.9375 111.723 62.2102 111.955C62.4867 112.182 62.8277 112.295 63.233 112.295ZM69.0909 114V105.273H71.3977V106.812H71.5C71.6818 106.301 71.9848 105.898 72.4091 105.602C72.8333 105.307 73.3409 105.159 73.9318 105.159C74.5303 105.159 75.0398 105.309 75.4602 105.608C75.8807 105.903 76.161 106.305 76.3011 106.812H76.392C76.5701 106.312 76.892 105.913 77.358 105.614C77.8277 105.311 78.3826 105.159 79.0227 105.159C79.8371 105.159 80.4981 105.419 81.0057 105.938C81.517 106.453 81.7727 107.184 81.7727 108.131V114H79.358V108.608C79.358 108.123 79.2292 107.759 78.9716 107.517C78.714 107.275 78.392 107.153 78.0057 107.153C77.5663 107.153 77.2235 107.294 76.9773 107.574C76.7311 107.85 76.608 108.216 76.608 108.67V114H74.2614V108.557C74.2614 108.129 74.1383 107.788 73.892 107.534C73.6496 107.28 73.3295 107.153 72.9318 107.153C72.6629 107.153 72.4205 107.222 72.2045 107.358C71.9924 107.491 71.8239 107.678 71.6989 107.92C71.5739 108.159 71.5114 108.439 71.5114 108.761V114H69.0909ZM83.6847 114V105.273H85.9915V106.812H86.0938C86.2756 106.301 86.5786 105.898 87.0028 105.602C87.4271 105.307 87.9347 105.159 88.5256 105.159C89.1241 105.159 89.6335 105.309 90.054 105.608C90.4744 105.903 90.7547 106.305 90.8949 106.812H90.9858C91.1638 106.312 91.4858 105.913 91.9517 105.614C92.4214 105.311 92.9763 105.159 93.6165 105.159C94.4309 105.159 95.0919 105.419 95.5994 105.938C96.1108 106.453 96.3665 107.184 96.3665 108.131V114H93.9517V108.608C93.9517 108.123 93.8229 107.759 93.5653 107.517C93.3078 107.275 92.9858 107.153 92.5994 107.153C92.16 107.153 91.8172 107.294 91.571 107.574C91.3248 107.85 91.2017 108.216 91.2017 108.67V114H88.8551V108.557C88.8551 108.129 88.732 107.788 88.4858 107.534C88.2434 107.28 87.9233 107.153 87.5256 107.153C87.2566 107.153 87.0142 107.222 86.7983 107.358C86.5862 107.491 86.4176 107.678 86.2926 107.92C86.1676 108.159 86.1051 108.439 86.1051 108.761V114H83.6847ZM102.256 114.17C101.358 114.17 100.585 113.989 99.9375 113.625C99.2936 113.258 98.7973 112.739 98.4489 112.068C98.1004 111.394 97.9261 110.597 97.9261 109.676C97.9261 108.778 98.1004 107.991 98.4489 107.312C98.7973 106.634 99.2879 106.106 99.9205 105.727C100.557 105.348 101.303 105.159 102.159 105.159C102.735 105.159 103.271 105.252 103.767 105.438C104.267 105.619 104.703 105.894 105.074 106.261C105.449 106.629 105.741 107.091 105.949 107.648C106.157 108.201 106.261 108.848 106.261 109.591V110.256H98.892V108.756H103.983C103.983 108.407 103.907 108.098 103.756 107.83C103.604 107.561 103.394 107.35 103.125 107.199C102.86 107.044 102.551 106.966 102.199 106.966C101.831 106.966 101.506 107.051 101.222 107.222C100.941 107.388 100.722 107.614 100.562 107.898C100.403 108.178 100.322 108.491 100.318 108.835V110.261C100.318 110.693 100.398 111.066 100.557 111.381C100.72 111.695 100.949 111.938 101.244 112.108C101.54 112.278 101.89 112.364 102.295 112.364C102.564 112.364 102.811 112.326 103.034 112.25C103.258 112.174 103.449 112.061 103.608 111.909C103.767 111.758 103.888 111.572 103.972 111.352L106.21 111.5C106.097 112.038 105.864 112.508 105.511 112.909C105.163 113.307 104.712 113.617 104.159 113.841C103.61 114.061 102.975 114.17 102.256 114.17ZM110.261 108.955V114H107.841V105.273H110.148V106.812H110.25C110.443 106.305 110.767 105.903 111.222 105.608C111.676 105.309 112.227 105.159 112.875 105.159C113.481 105.159 114.009 105.292 114.46 105.557C114.911 105.822 115.261 106.201 115.511 106.693C115.761 107.182 115.886 107.765 115.886 108.443V114H113.466V108.875C113.47 108.341 113.333 107.924 113.057 107.625C112.78 107.322 112.4 107.17 111.915 107.17C111.589 107.17 111.301 107.241 111.051 107.381C110.805 107.521 110.612 107.725 110.472 107.994C110.335 108.259 110.265 108.58 110.261 108.955ZM121.01 114.142C120.347 114.142 119.747 113.972 119.209 113.631C118.675 113.286 118.25 112.78 117.936 112.114C117.625 111.443 117.47 110.621 117.47 109.648C117.47 108.648 117.631 107.816 117.953 107.153C118.275 106.487 118.703 105.989 119.237 105.659C119.775 105.326 120.364 105.159 121.004 105.159C121.493 105.159 121.9 105.242 122.226 105.409C122.555 105.572 122.821 105.777 123.021 106.023C123.226 106.265 123.381 106.504 123.487 106.739H123.561V102.364H125.976V114H123.589V112.602H123.487C123.374 112.845 123.213 113.085 123.004 113.324C122.8 113.559 122.533 113.754 122.203 113.909C121.877 114.064 121.48 114.142 121.01 114.142ZM121.777 112.216C122.167 112.216 122.497 112.11 122.766 111.898C123.038 111.682 123.247 111.381 123.391 110.994C123.538 110.608 123.612 110.155 123.612 109.636C123.612 109.117 123.54 108.667 123.396 108.284C123.252 107.902 123.044 107.606 122.771 107.398C122.499 107.189 122.167 107.085 121.777 107.085C121.379 107.085 121.044 107.193 120.771 107.409C120.499 107.625 120.292 107.924 120.152 108.307C120.012 108.689 119.942 109.133 119.942 109.636C119.942 110.144 120.012 110.593 120.152 110.983C120.296 111.369 120.502 111.672 120.771 111.892C121.044 112.108 121.379 112.216 121.777 112.216ZM131.943 114.17C131.045 114.17 130.273 113.989 129.625 113.625C128.981 113.258 128.485 112.739 128.136 112.068C127.788 111.394 127.614 110.597 127.614 109.676C127.614 108.778 127.788 107.991 128.136 107.312C128.485 106.634 128.975 106.106 129.608 105.727C130.244 105.348 130.991 105.159 131.847 105.159C132.422 105.159 132.958 105.252 133.455 105.438C133.955 105.619 134.39 105.894 134.761 106.261C135.136 106.629 135.428 107.091 135.636 107.648C135.845 108.201 135.949 108.848 135.949 109.591V110.256H128.58V108.756H133.67C133.67 108.407 133.595 108.098 133.443 107.83C133.292 107.561 133.081 107.35 132.812 107.199C132.547 107.044 132.239 106.966 131.886 106.966C131.519 106.966 131.193 107.051 130.909 107.222C130.629 107.388 130.409 107.614 130.25 107.898C130.091 108.178 130.009 108.491 130.006 108.835V110.261C130.006 110.693 130.085 111.066 130.244 111.381C130.407 111.695 130.636 111.938 130.932 112.108C131.227 112.278 131.578 112.364 131.983 112.364C132.252 112.364 132.498 112.326 132.722 112.25C132.945 112.174 133.136 112.061 133.295 111.909C133.455 111.758 133.576 111.572 133.659 111.352L135.898 111.5C135.784 112.038 135.551 112.508 135.199 112.909C134.85 113.307 134.4 113.617 133.847 113.841C133.297 114.061 132.663 114.17 131.943 114.17ZM137.528 114V105.273H139.875V106.795H139.966C140.125 106.254 140.392 105.845 140.767 105.568C141.142 105.288 141.574 105.148 142.062 105.148C142.184 105.148 142.314 105.155 142.455 105.17C142.595 105.186 142.718 105.206 142.824 105.233V107.381C142.71 107.347 142.553 107.316 142.352 107.29C142.152 107.263 141.968 107.25 141.801 107.25C141.445 107.25 141.127 107.328 140.847 107.483C140.57 107.634 140.35 107.847 140.188 108.119C140.028 108.392 139.949 108.706 139.949 109.062V114H137.528Z" fill="#2A3647"/>
<path d="M30.4091 141V129.364H34.4773C35.2879 129.364 35.9564 129.504 36.483 129.784C37.0095 130.061 37.4015 130.434 37.6591 130.903C37.9167 131.369 38.0455 131.886 38.0455 132.455C38.0455 132.955 37.9564 133.367 37.7784 133.693C37.6042 134.019 37.3731 134.277 37.0852 134.466C36.8011 134.655 36.4924 134.795 36.1591 134.886V135C36.5152 135.023 36.8731 135.148 37.233 135.375C37.5928 135.602 37.8939 135.928 38.1364 136.352C38.3788 136.777 38.5 137.295 38.5 137.909C38.5 138.492 38.3674 139.017 38.1023 139.483C37.8371 139.949 37.4186 140.318 36.8466 140.591C36.2746 140.864 35.5303 141 34.6136 141H30.4091ZM31.8182 139.75H34.6136C35.5341 139.75 36.1875 139.572 36.5739 139.216C36.964 138.856 37.1591 138.42 37.1591 137.909C37.1591 137.515 37.0587 137.152 36.858 136.818C36.6572 136.481 36.3712 136.212 36 136.011C35.6288 135.807 35.1894 135.705 34.6818 135.705H31.8182V139.75ZM31.8182 134.477H34.4318C34.8561 134.477 35.2386 134.394 35.5795 134.227C35.9242 134.061 36.197 133.826 36.3977 133.523C36.6023 133.22 36.7045 132.864 36.7045 132.455C36.7045 131.943 36.5265 131.509 36.1705 131.153C35.8144 130.794 35.25 130.614 34.4773 130.614H31.8182V134.477ZM46.1335 137.432V132.273H47.4744V141H46.1335V139.523H46.0426C45.8381 139.966 45.5199 140.343 45.0881 140.653C44.6563 140.96 44.1108 141.114 43.4517 141.114C42.9062 141.114 42.4214 140.994 41.9972 140.756C41.5729 140.513 41.2396 140.15 40.9972 139.665C40.7547 139.176 40.6335 138.561 40.6335 137.818V132.273H41.9744V137.727C41.9744 138.364 42.1525 138.871 42.5085 139.25C42.8684 139.629 43.3267 139.818 43.8835 139.818C44.2169 139.818 44.5559 139.733 44.9006 139.562C45.2491 139.392 45.5407 139.131 45.7756 138.778C46.0142 138.426 46.1335 137.977 46.1335 137.432ZM49.9304 141V132.273H51.2713V141H49.9304ZM50.6122 130.818C50.3509 130.818 50.1255 130.729 49.9361 130.551C49.7505 130.373 49.6577 130.159 49.6577 129.909C49.6577 129.659 49.7505 129.445 49.9361 129.267C50.1255 129.089 50.3509 129 50.6122 129C50.8736 129 51.0971 129.089 51.2827 129.267C51.4721 129.445 51.5668 129.659 51.5668 129.909C51.5668 130.159 51.4721 130.373 51.2827 130.551C51.0971 130.729 50.8736 130.818 50.6122 130.818ZM55.0682 129.364V141H53.7273V129.364H55.0682ZM60.8196 141.182C60.0923 141.182 59.4503 140.998 58.8935 140.631C58.3366 140.259 57.901 139.737 57.5866 139.062C57.2723 138.384 57.1151 137.583 57.1151 136.659C57.1151 135.742 57.2723 134.947 57.5866 134.273C57.901 133.598 58.3385 133.078 58.8991 132.71C59.4598 132.343 60.1075 132.159 60.8423 132.159C61.4105 132.159 61.8594 132.254 62.1889 132.443C62.5223 132.629 62.776 132.841 62.9503 133.08C63.1283 133.314 63.2666 133.508 63.3651 133.659H63.4787V129.364H64.8196V141H63.5241V139.659H63.3651C63.2666 139.818 63.1264 140.019 62.9446 140.261C62.7628 140.5 62.5033 140.714 62.1662 140.903C61.8291 141.089 61.3802 141.182 60.8196 141.182ZM61.0014 139.977C61.5393 139.977 61.9938 139.837 62.3651 139.557C62.7363 139.273 63.0185 138.881 63.2116 138.381C63.4048 137.877 63.5014 137.295 63.5014 136.636C63.5014 135.985 63.4067 135.415 63.2173 134.926C63.0279 134.434 62.7476 134.051 62.3764 133.778C62.0052 133.502 61.5469 133.364 61.0014 133.364C60.4332 133.364 59.9598 133.509 59.581 133.801C59.206 134.089 58.9238 134.481 58.7344 134.977C58.5488 135.47 58.456 136.023 58.456 136.636C58.456 137.258 58.5507 137.822 58.7401 138.33C58.9332 138.833 59.2173 139.235 59.5923 139.534C59.9711 139.83 60.4408 139.977 61.0014 139.977ZM78.1435 134.227L76.9389 134.568C76.8632 134.367 76.7514 134.172 76.6037 133.983C76.4598 133.79 76.2628 133.631 76.0128 133.506C75.7628 133.381 75.4427 133.318 75.0526 133.318C74.5185 133.318 74.0734 133.441 73.7173 133.688C73.3651 133.93 73.1889 134.239 73.1889 134.614C73.1889 134.947 73.3101 135.21 73.5526 135.403C73.795 135.597 74.1738 135.758 74.6889 135.886L75.9844 136.205C76.7647 136.394 77.3461 136.684 77.7287 137.074C78.1113 137.46 78.3026 137.958 78.3026 138.568C78.3026 139.068 78.1586 139.515 77.8707 139.909C77.5866 140.303 77.1889 140.614 76.6776 140.841C76.1662 141.068 75.5715 141.182 74.8935 141.182C74.0033 141.182 73.2666 140.989 72.6832 140.602C72.0999 140.216 71.7306 139.652 71.5753 138.909L72.848 138.591C72.9692 139.061 73.1984 139.413 73.5355 139.648C73.8764 139.883 74.3215 140 74.8707 140C75.4957 140 75.992 139.867 76.3594 139.602C76.7306 139.333 76.9162 139.011 76.9162 138.636C76.9162 138.333 76.8101 138.08 76.598 137.875C76.3859 137.667 76.0601 137.511 75.6207 137.409L74.1662 137.068C73.367 136.879 72.7798 136.585 72.4048 136.188C72.0336 135.786 71.848 135.284 71.848 134.682C71.848 134.189 71.9863 133.754 72.2628 133.375C72.5431 132.996 72.9238 132.699 73.4048 132.483C73.8897 132.267 74.4389 132.159 75.0526 132.159C75.9162 132.159 76.5942 132.348 77.0866 132.727C77.5829 133.106 77.9351 133.606 78.1435 134.227ZM84.1165 132.273V133.409H79.5938V132.273H84.1165ZM80.9119 130.182H82.2528V138.5C82.2528 138.879 82.3078 139.163 82.4176 139.352C82.5313 139.538 82.6752 139.663 82.8494 139.727C83.0275 139.788 83.215 139.818 83.4119 139.818C83.5597 139.818 83.6809 139.811 83.7756 139.795C83.8703 139.777 83.946 139.761 84.0028 139.75L84.2756 140.955C84.1847 140.989 84.0578 141.023 83.8949 141.057C83.732 141.095 83.5256 141.114 83.2756 141.114C82.8968 141.114 82.5256 141.032 82.1619 140.869C81.8021 140.706 81.5028 140.458 81.2642 140.125C81.0294 139.792 80.9119 139.371 80.9119 138.864V130.182ZM88.7017 141.205C88.1487 141.205 87.6468 141.1 87.196 140.892C86.7453 140.68 86.3873 140.375 86.1222 139.977C85.857 139.576 85.7244 139.091 85.7244 138.523C85.7244 138.023 85.8229 137.617 86.0199 137.307C86.2169 136.992 86.4801 136.746 86.8097 136.568C87.1392 136.39 87.5028 136.258 87.9006 136.17C88.3021 136.08 88.7055 136.008 89.1108 135.955C89.6411 135.886 90.071 135.835 90.4006 135.801C90.7339 135.763 90.9763 135.701 91.1278 135.614C91.2831 135.527 91.3608 135.375 91.3608 135.159V135.114C91.3608 134.553 91.2074 134.117 90.9006 133.807C90.5975 133.496 90.1373 133.341 89.5199 133.341C88.8797 133.341 88.3778 133.481 88.0142 133.761C87.6506 134.042 87.3949 134.341 87.2472 134.659L85.9744 134.205C86.2017 133.674 86.5047 133.261 86.8835 132.966C87.2661 132.667 87.6828 132.458 88.1335 132.341C88.5881 132.22 89.035 132.159 89.4744 132.159C89.7547 132.159 90.0767 132.193 90.4403 132.261C90.8078 132.326 91.1619 132.46 91.5028 132.665C91.8475 132.869 92.1335 133.178 92.3608 133.591C92.5881 134.004 92.7017 134.557 92.7017 135.25V141H91.3608V139.818H91.2926C91.2017 140.008 91.0502 140.21 90.8381 140.426C90.6259 140.642 90.3438 140.826 89.9915 140.977C89.6392 141.129 89.2093 141.205 88.7017 141.205ZM88.9062 140C89.4366 140 89.8835 139.896 90.2472 139.688C90.6146 139.479 90.8911 139.21 91.0767 138.881C91.2661 138.551 91.3608 138.205 91.3608 137.841V136.614C91.304 136.682 91.179 136.744 90.9858 136.801C90.7964 136.854 90.5767 136.902 90.3267 136.943C90.0805 136.981 89.84 137.015 89.6051 137.045C89.3741 137.072 89.1866 137.095 89.0426 137.114C88.6941 137.159 88.3684 137.233 88.0653 137.335C87.7661 137.434 87.5237 137.583 87.3381 137.784C87.1563 137.981 87.0653 138.25 87.0653 138.591C87.0653 139.057 87.2377 139.409 87.5824 139.648C87.9309 139.883 88.3722 140 88.9062 140ZM95.1491 141V132.273H96.4446V133.591H96.5355C96.6946 133.159 96.9825 132.809 97.3991 132.54C97.8158 132.271 98.2855 132.136 98.8082 132.136C98.9067 132.136 99.0298 132.138 99.1776 132.142C99.3253 132.146 99.437 132.152 99.5128 132.159V133.523C99.4673 133.511 99.3632 133.494 99.2003 133.472C99.0412 133.445 98.8726 133.432 98.6946 133.432C98.2704 133.432 97.8916 133.521 97.5582 133.699C97.2287 133.873 96.9673 134.116 96.7741 134.426C96.5848 134.733 96.4901 135.083 96.4901 135.477V141H95.1491ZM105.445 132.273V133.409H100.922V132.273H105.445ZM102.24 130.182H103.581V138.5C103.581 138.879 103.636 139.163 103.746 139.352C103.859 139.538 104.003 139.663 104.178 139.727C104.356 139.788 104.543 139.818 104.74 139.818C104.888 139.818 105.009 139.811 105.104 139.795C105.198 139.777 105.274 139.761 105.331 139.75L105.604 140.955C105.513 140.989 105.386 141.023 105.223 141.057C105.06 141.095 104.854 141.114 104.604 141.114C104.225 141.114 103.854 141.032 103.49 140.869C103.13 140.706 102.831 140.458 102.592 140.125C102.357 139.792 102.24 139.371 102.24 138.864V130.182ZM111.962 144.273V132.273H113.257V133.659H113.416C113.515 133.508 113.651 133.314 113.825 133.08C114.003 132.841 114.257 132.629 114.587 132.443C114.92 132.254 115.371 132.159 115.939 132.159C116.674 132.159 117.321 132.343 117.882 132.71C118.443 133.078 118.88 133.598 119.195 134.273C119.509 134.947 119.666 135.742 119.666 136.659C119.666 137.583 119.509 138.384 119.195 139.062C118.88 139.737 118.445 140.259 117.888 140.631C117.331 140.998 116.689 141.182 115.962 141.182C115.401 141.182 114.952 141.089 114.615 140.903C114.278 140.714 114.018 140.5 113.837 140.261C113.655 140.019 113.515 139.818 113.416 139.659H113.303V144.273H111.962ZM113.28 136.636C113.28 137.295 113.376 137.877 113.57 138.381C113.763 138.881 114.045 139.273 114.416 139.557C114.787 139.837 115.242 139.977 115.78 139.977C116.34 139.977 116.808 139.83 117.183 139.534C117.562 139.235 117.846 138.833 118.036 138.33C118.229 137.822 118.325 137.258 118.325 136.636C118.325 136.023 118.231 135.47 118.041 134.977C117.856 134.481 117.573 134.089 117.195 133.801C116.82 133.509 116.348 133.364 115.78 133.364C115.234 133.364 114.776 133.502 114.405 133.778C114.034 134.051 113.753 134.434 113.564 134.926C113.375 135.415 113.28 135.985 113.28 136.636ZM124.28 141.205C123.727 141.205 123.225 141.1 122.774 140.892C122.323 140.68 121.965 140.375 121.7 139.977C121.435 139.576 121.303 139.091 121.303 138.523C121.303 138.023 121.401 137.617 121.598 137.307C121.795 136.992 122.058 136.746 122.388 136.568C122.717 136.39 123.081 136.258 123.479 136.17C123.88 136.08 124.284 136.008 124.689 135.955C125.219 135.886 125.649 135.835 125.979 135.801C126.312 135.763 126.554 135.701 126.706 135.614C126.861 135.527 126.939 135.375 126.939 135.159V135.114C126.939 134.553 126.786 134.117 126.479 133.807C126.176 133.496 125.715 133.341 125.098 133.341C124.458 133.341 123.956 133.481 123.592 133.761C123.229 134.042 122.973 134.341 122.825 134.659L121.553 134.205C121.78 133.674 122.083 133.261 122.462 132.966C122.844 132.667 123.261 132.458 123.712 132.341C124.166 132.22 124.613 132.159 125.053 132.159C125.333 132.159 125.655 132.193 126.018 132.261C126.386 132.326 126.74 132.46 127.081 132.665C127.426 132.869 127.712 133.178 127.939 133.591C128.166 134.004 128.28 134.557 128.28 135.25V141H126.939V139.818H126.871C126.78 140.008 126.628 140.21 126.416 140.426C126.204 140.642 125.922 140.826 125.57 140.977C125.217 141.129 124.787 141.205 124.28 141.205ZM124.484 140C125.015 140 125.462 139.896 125.825 139.688C126.193 139.479 126.469 139.21 126.655 138.881C126.844 138.551 126.939 138.205 126.939 137.841V136.614C126.882 136.682 126.757 136.744 126.564 136.801C126.375 136.854 126.155 136.902 125.905 136.943C125.659 136.981 125.418 137.015 125.183 137.045C124.952 137.072 124.765 137.095 124.621 137.114C124.272 137.159 123.946 137.233 123.643 137.335C123.344 137.434 123.102 137.583 122.916 137.784C122.734 137.981 122.643 138.25 122.643 138.591C122.643 139.057 122.816 139.409 123.161 139.648C123.509 139.883 123.95 140 124.484 140ZM134.25 144.455C133.602 144.455 133.045 144.371 132.58 144.205C132.114 144.042 131.725 143.826 131.415 143.557C131.108 143.292 130.864 143.008 130.682 142.705L131.75 141.955C131.871 142.114 132.025 142.295 132.21 142.5C132.396 142.708 132.65 142.888 132.972 143.04C133.297 143.195 133.723 143.273 134.25 143.273C134.955 143.273 135.536 143.102 135.994 142.761C136.453 142.42 136.682 141.886 136.682 141.159V139.386H136.568C136.47 139.545 136.33 139.742 136.148 139.977C135.97 140.208 135.712 140.415 135.375 140.597C135.042 140.775 134.591 140.864 134.023 140.864C133.318 140.864 132.686 140.697 132.125 140.364C131.568 140.03 131.127 139.545 130.801 138.909C130.479 138.273 130.318 137.5 130.318 136.591C130.318 135.697 130.475 134.919 130.79 134.256C131.104 133.589 131.542 133.074 132.102 132.71C132.663 132.343 133.311 132.159 134.045 132.159C134.614 132.159 135.064 132.254 135.398 132.443C135.735 132.629 135.992 132.841 136.17 133.08C136.352 133.314 136.492 133.508 136.591 133.659H136.727V132.273H138.023V141.25C138.023 142 137.852 142.61 137.511 143.08C137.174 143.553 136.72 143.9 136.148 144.119C135.58 144.343 134.947 144.455 134.25 144.455ZM134.205 139.659C134.742 139.659 135.197 139.536 135.568 139.29C135.939 139.044 136.222 138.689 136.415 138.227C136.608 137.765 136.705 137.212 136.705 136.568C136.705 135.939 136.61 135.384 136.42 134.903C136.231 134.422 135.951 134.045 135.58 133.773C135.208 133.5 134.75 133.364 134.205 133.364C133.636 133.364 133.163 133.508 132.784 133.795C132.409 134.083 132.127 134.47 131.938 134.955C131.752 135.439 131.659 135.977 131.659 136.568C131.659 137.174 131.754 137.71 131.943 138.176C132.136 138.638 132.42 139.002 132.795 139.267C133.174 139.528 133.644 139.659 134.205 139.659ZM144.136 141.182C143.295 141.182 142.57 140.996 141.96 140.625C141.354 140.25 140.886 139.727 140.557 139.057C140.231 138.383 140.068 137.598 140.068 136.705C140.068 135.811 140.231 135.023 140.557 134.341C140.886 133.655 141.345 133.121 141.932 132.739C142.523 132.352 143.212 132.159 144 132.159C144.455 132.159 144.903 132.235 145.347 132.386C145.79 132.538 146.193 132.784 146.557 133.125C146.92 133.462 147.21 133.909 147.426 134.466C147.642 135.023 147.75 135.708 147.75 136.523V137.091H141.023V135.932H146.386C146.386 135.439 146.288 135 146.091 134.614C145.898 134.227 145.621 133.922 145.261 133.699C144.905 133.475 144.485 133.364 144 133.364C143.466 133.364 143.004 133.496 142.614 133.761C142.227 134.023 141.93 134.364 141.722 134.784C141.513 135.205 141.409 135.655 141.409 136.136V136.909C141.409 137.568 141.523 138.127 141.75 138.585C141.981 139.04 142.301 139.386 142.71 139.625C143.119 139.86 143.595 139.977 144.136 139.977C144.489 139.977 144.807 139.928 145.091 139.83C145.379 139.727 145.627 139.576 145.835 139.375C146.044 139.17 146.205 138.917 146.318 138.614L147.614 138.977C147.477 139.417 147.248 139.803 146.926 140.136C146.604 140.466 146.206 140.723 145.733 140.909C145.259 141.091 144.727 141.182 144.136 141.182ZM156.267 141L153.608 132.273H155.017L156.903 138.955H156.994L158.858 132.273H160.29L162.131 138.932H162.222L164.108 132.273H165.517L162.858 141H161.54L159.631 134.295H159.494L157.585 141H156.267ZM167.29 141V132.273H168.631V141H167.29ZM167.972 130.818C167.71 130.818 167.485 130.729 167.295 130.551C167.11 130.373 167.017 130.159 167.017 129.909C167.017 129.659 167.11 129.445 167.295 129.267C167.485 129.089 167.71 129 167.972 129C168.233 129 168.456 129.089 168.642 129.267C168.831 129.445 168.926 129.659 168.926 129.909C168.926 130.159 168.831 130.373 168.642 130.551C168.456 130.729 168.233 130.818 167.972 130.818ZM174.882 132.273V133.409H170.359V132.273H174.882ZM171.678 130.182H173.018V138.5C173.018 138.879 173.073 139.163 173.183 139.352C173.297 139.538 173.441 139.663 173.615 139.727C173.793 139.788 173.981 139.818 174.178 139.818C174.325 139.818 174.446 139.811 174.541 139.795C174.636 139.777 174.712 139.761 174.768 139.75L175.041 140.955C174.95 140.989 174.823 141.023 174.661 141.057C174.498 141.095 174.291 141.114 174.041 141.114C173.662 141.114 173.291 141.032 172.928 140.869C172.568 140.706 172.268 140.458 172.03 140.125C171.795 139.792 171.678 139.371 171.678 138.864V130.182ZM178.428 135.75V141H177.087V129.364H178.428V133.636H178.541C178.746 133.186 179.053 132.828 179.462 132.562C179.875 132.294 180.424 132.159 181.109 132.159C181.704 132.159 182.225 132.278 182.672 132.517C183.119 132.752 183.465 133.114 183.712 133.602C183.962 134.087 184.087 134.705 184.087 135.455V141H182.746V135.545C182.746 134.852 182.566 134.316 182.206 133.938C181.85 133.555 181.356 133.364 180.723 133.364C180.284 133.364 179.89 133.456 179.541 133.642C179.196 133.828 178.924 134.098 178.723 134.455C178.526 134.811 178.428 135.242 178.428 135.75ZM191.04 141V132.273H192.335V133.591H192.426C192.585 133.159 192.873 132.809 193.29 132.54C193.706 132.271 194.176 132.136 194.699 132.136C194.797 132.136 194.92 132.138 195.068 132.142C195.216 132.146 195.328 132.152 195.403 132.159V133.523C195.358 133.511 195.254 133.494 195.091 133.472C194.932 133.445 194.763 133.432 194.585 133.432C194.161 133.432 193.782 133.521 193.449 133.699C193.119 133.873 192.858 134.116 192.665 134.426C192.475 134.733 192.381 135.083 192.381 135.477V141H191.04ZM200.386 141.182C199.545 141.182 198.82 140.996 198.21 140.625C197.604 140.25 197.136 139.727 196.807 139.057C196.481 138.383 196.318 137.598 196.318 136.705C196.318 135.811 196.481 135.023 196.807 134.341C197.136 133.655 197.595 133.121 198.182 132.739C198.773 132.352 199.462 132.159 200.25 132.159C200.705 132.159 201.153 132.235 201.597 132.386C202.04 132.538 202.443 132.784 202.807 133.125C203.17 133.462 203.46 133.909 203.676 134.466C203.892 135.023 204 135.708 204 136.523V137.091H197.273V135.932H202.636C202.636 135.439 202.538 135 202.341 134.614C202.148 134.227 201.871 133.922 201.511 133.699C201.155 133.475 200.735 133.364 200.25 133.364C199.716 133.364 199.254 133.496 198.864 133.761C198.477 134.023 198.18 134.364 197.972 134.784C197.763 135.205 197.659 135.655 197.659 136.136V136.909C197.659 137.568 197.773 138.127 198 138.585C198.231 139.04 198.551 139.386 198.96 139.625C199.369 139.86 199.845 139.977 200.386 139.977C200.739 139.977 201.057 139.928 201.341 139.83C201.629 139.727 201.877 139.576 202.085 139.375C202.294 139.17 202.455 138.917 202.568 138.614L203.864 138.977C203.727 139.417 203.498 139.803 203.176 140.136C202.854 140.466 202.456 140.723 201.983 140.909C201.509 141.091 200.977 141.182 200.386 141.182ZM209.585 141.182C208.767 141.182 208.063 140.989 207.472 140.602C206.881 140.216 206.426 139.684 206.108 139.006C205.79 138.328 205.631 137.553 205.631 136.682C205.631 135.795 205.794 135.013 206.119 134.335C206.449 133.653 206.907 133.121 207.494 132.739C208.085 132.352 208.775 132.159 209.562 132.159C210.176 132.159 210.729 132.273 211.222 132.5C211.714 132.727 212.117 133.045 212.432 133.455C212.746 133.864 212.941 134.341 213.017 134.886H211.676C211.574 134.489 211.347 134.136 210.994 133.83C210.646 133.519 210.176 133.364 209.585 133.364C209.063 133.364 208.604 133.5 208.21 133.773C207.82 134.042 207.515 134.422 207.295 134.915C207.08 135.403 206.972 135.977 206.972 136.636C206.972 137.311 207.078 137.898 207.29 138.398C207.506 138.898 207.809 139.286 208.199 139.562C208.593 139.839 209.055 139.977 209.585 139.977C209.934 139.977 210.25 139.917 210.534 139.795C210.818 139.674 211.059 139.5 211.256 139.273C211.453 139.045 211.593 138.773 211.676 138.455H213.017C212.941 138.97 212.754 139.434 212.455 139.847C212.159 140.256 211.767 140.581 211.278 140.824C210.794 141.062 210.229 141.182 209.585 141.182ZM214.977 141V132.273H216.318V141H214.977ZM215.659 130.818C215.398 130.818 215.172 130.729 214.983 130.551C214.797 130.373 214.705 130.159 214.705 129.909C214.705 129.659 214.797 129.445 214.983 129.267C215.172 129.089 215.398 129 215.659 129C215.92 129 216.144 129.089 216.33 129.267C216.519 129.445 216.614 129.659 216.614 129.909C216.614 130.159 216.519 130.373 216.33 130.551C216.144 130.729 215.92 130.818 215.659 130.818ZM218.774 144.273V132.273H220.07V133.659H220.229C220.327 133.508 220.464 133.314 220.638 133.08C220.816 132.841 221.07 132.629 221.399 132.443C221.732 132.254 222.183 132.159 222.751 132.159C223.486 132.159 224.134 132.343 224.695 132.71C225.255 133.078 225.693 133.598 226.007 134.273C226.321 134.947 226.479 135.742 226.479 136.659C226.479 137.583 226.321 138.384 226.007 139.062C225.693 139.737 225.257 140.259 224.7 140.631C224.143 140.998 223.501 141.182 222.774 141.182C222.214 141.182 221.765 141.089 221.428 140.903C221.09 140.714 220.831 140.5 220.649 140.261C220.467 140.019 220.327 139.818 220.229 139.659H220.115V144.273H218.774ZM220.092 136.636C220.092 137.295 220.189 137.877 220.382 138.381C220.575 138.881 220.857 139.273 221.229 139.557C221.6 139.837 222.054 139.977 222.592 139.977C223.153 139.977 223.621 139.83 223.996 139.534C224.375 139.235 224.659 138.833 224.848 138.33C225.041 137.822 225.138 137.258 225.138 136.636C225.138 136.023 225.043 135.47 224.854 134.977C224.668 134.481 224.386 134.089 224.007 133.801C223.632 133.509 223.161 133.364 222.592 133.364C222.047 133.364 221.589 133.502 221.217 133.778C220.846 134.051 220.566 134.434 220.376 134.926C220.187 135.415 220.092 135.985 220.092 136.636ZM232.183 141.182C231.342 141.182 230.617 140.996 230.007 140.625C229.401 140.25 228.933 139.727 228.604 139.057C228.278 138.383 228.115 137.598 228.115 136.705C228.115 135.811 228.278 135.023 228.604 134.341C228.933 133.655 229.392 133.121 229.979 132.739C230.57 132.352 231.259 132.159 232.047 132.159C232.501 132.159 232.95 132.235 233.393 132.386C233.837 132.538 234.24 132.784 234.604 133.125C234.967 133.462 235.257 133.909 235.473 134.466C235.689 135.023 235.797 135.708 235.797 136.523V137.091H229.07V135.932H234.433C234.433 135.439 234.335 135 234.138 134.614C233.945 134.227 233.668 133.922 233.308 133.699C232.952 133.475 232.532 133.364 232.047 133.364C231.513 133.364 231.051 133.496 230.661 133.761C230.274 134.023 229.977 134.364 229.768 134.784C229.56 135.205 229.456 135.655 229.456 136.136V136.909C229.456 137.568 229.57 138.127 229.797 138.585C230.028 139.04 230.348 139.386 230.757 139.625C231.166 139.86 231.642 139.977 232.183 139.977C232.536 139.977 232.854 139.928 233.138 139.83C233.426 139.727 233.674 139.576 233.882 139.375C234.09 139.17 234.251 138.917 234.365 138.614L235.661 138.977C235.524 139.417 235.295 139.803 234.973 140.136C234.651 140.466 234.253 140.723 233.78 140.909C233.306 141.091 232.774 141.182 232.183 141.182ZM30.2273 160V151.273H31.5227V152.591H31.6136C31.7727 152.159 32.0606 151.809 32.4773 151.54C32.8939 151.271 33.3636 151.136 33.8864 151.136C33.9848 151.136 34.108 151.138 34.2557 151.142C34.4034 151.146 34.5152 151.152 34.5909 151.159V152.523C34.5455 152.511 34.4413 152.494 34.2784 152.472C34.1193 152.445 33.9508 152.432 33.7727 152.432C33.3485 152.432 32.9697 152.521 32.6364 152.699C32.3068 152.873 32.0455 153.116 31.8523 153.426C31.6629 153.733 31.5682 154.083 31.5682 154.477V160H30.2273ZM39.5739 160.182C38.733 160.182 38.0076 159.996 37.3977 159.625C36.7917 159.25 36.3239 158.727 35.9943 158.057C35.6686 157.383 35.5057 156.598 35.5057 155.705C35.5057 154.811 35.6686 154.023 35.9943 153.341C36.3239 152.655 36.7822 152.121 37.3693 151.739C37.9602 151.352 38.6496 151.159 39.4375 151.159C39.892 151.159 40.3409 151.235 40.7841 151.386C41.2273 151.538 41.6307 151.784 41.9943 152.125C42.358 152.462 42.6477 152.909 42.8636 153.466C43.0795 154.023 43.1875 154.708 43.1875 155.523V156.091H36.4602V154.932H41.8239C41.8239 154.439 41.7254 154 41.5284 153.614C41.3352 153.227 41.0587 152.922 40.6989 152.699C40.3428 152.475 39.9223 152.364 39.4375 152.364C38.9034 152.364 38.4413 152.496 38.0511 152.761C37.6648 153.023 37.3674 153.364 37.1591 153.784C36.9508 154.205 36.8466 154.655 36.8466 155.136V155.909C36.8466 156.568 36.9602 157.127 37.1875 157.585C37.4186 158.04 37.7386 158.386 38.1477 158.625C38.5568 158.86 39.0322 158.977 39.5739 158.977C39.9261 158.977 40.2443 158.928 40.5284 158.83C40.8163 158.727 41.0644 158.576 41.2727 158.375C41.4811 158.17 41.642 157.917 41.7557 157.614L43.0511 157.977C42.9148 158.417 42.6856 158.803 42.3636 159.136C42.0417 159.466 41.6439 159.723 41.1705 159.909C40.697 160.091 40.1648 160.182 39.5739 160.182ZM48.7727 160.182C47.9545 160.182 47.25 159.989 46.6591 159.602C46.0682 159.216 45.6136 158.684 45.2955 158.006C44.9773 157.328 44.8182 156.553 44.8182 155.682C44.8182 154.795 44.9811 154.013 45.3068 153.335C45.6364 152.653 46.0947 152.121 46.6818 151.739C47.2727 151.352 47.9621 151.159 48.75 151.159C49.3636 151.159 49.9167 151.273 50.4091 151.5C50.9015 151.727 51.3049 152.045 51.6193 152.455C51.9337 152.864 52.1288 153.341 52.2045 153.886H50.8636C50.7614 153.489 50.5341 153.136 50.1818 152.83C49.8333 152.519 49.3636 152.364 48.7727 152.364C48.25 152.364 47.7917 152.5 47.3977 152.773C47.0076 153.042 46.7027 153.422 46.483 153.915C46.267 154.403 46.1591 154.977 46.1591 155.636C46.1591 156.311 46.2652 156.898 46.4773 157.398C46.6932 157.898 46.9962 158.286 47.3864 158.562C47.7803 158.839 48.2424 158.977 48.7727 158.977C49.1212 158.977 49.4375 158.917 49.7216 158.795C50.0057 158.674 50.2462 158.5 50.4432 158.273C50.6402 158.045 50.7803 157.773 50.8636 157.455H52.2045C52.1288 157.97 51.9413 158.434 51.642 158.847C51.3466 159.256 50.9545 159.581 50.4659 159.824C49.9811 160.062 49.4167 160.182 48.7727 160.182ZM57.7102 160.182C56.9223 160.182 56.2311 159.994 55.6364 159.619C55.0455 159.244 54.5833 158.72 54.25 158.045C53.9205 157.371 53.7557 156.583 53.7557 155.682C53.7557 154.773 53.9205 153.979 54.25 153.301C54.5833 152.623 55.0455 152.097 55.6364 151.722C56.2311 151.347 56.9223 151.159 57.7102 151.159C58.4981 151.159 59.1875 151.347 59.7784 151.722C60.3731 152.097 60.8352 152.623 61.1648 153.301C61.4981 153.979 61.6648 154.773 61.6648 155.682C61.6648 156.583 61.4981 157.371 61.1648 158.045C60.8352 158.72 60.3731 159.244 59.7784 159.619C59.1875 159.994 58.4981 160.182 57.7102 160.182ZM57.7102 158.977C58.3087 158.977 58.8011 158.824 59.1875 158.517C59.5739 158.21 59.8598 157.807 60.0455 157.307C60.2311 156.807 60.3239 156.265 60.3239 155.682C60.3239 155.098 60.2311 154.555 60.0455 154.051C59.8598 153.547 59.5739 153.14 59.1875 152.83C58.8011 152.519 58.3087 152.364 57.7102 152.364C57.1117 152.364 56.6193 152.519 56.233 152.83C55.8466 153.14 55.5606 153.547 55.375 154.051C55.1894 154.555 55.0966 155.098 55.0966 155.682C55.0966 156.265 55.1894 156.807 55.375 157.307C55.5606 157.807 55.8466 158.21 56.233 158.517C56.6193 158.824 57.1117 158.977 57.7102 158.977ZM63.7116 160V151.273H65.0071V152.636H65.1207C65.3026 152.17 65.5961 151.809 66.0014 151.551C66.4067 151.29 66.8935 151.159 67.4616 151.159C68.0374 151.159 68.5166 151.29 68.8991 151.551C69.2855 151.809 69.5866 152.17 69.8026 152.636H69.8935C70.117 152.186 70.4522 151.828 70.8991 151.562C71.3461 151.294 71.8821 151.159 72.5071 151.159C73.2874 151.159 73.9257 151.403 74.4219 151.892C74.9181 152.377 75.1662 153.133 75.1662 154.159V160H73.8253V154.159C73.8253 153.515 73.6491 153.055 73.2969 152.778C72.9446 152.502 72.5298 152.364 72.0526 152.364C71.4389 152.364 70.9635 152.549 70.6264 152.92C70.2893 153.288 70.1207 153.754 70.1207 154.318V160H68.7571V154.023C68.7571 153.527 68.5961 153.127 68.2741 152.824C67.9522 152.517 67.5374 152.364 67.0298 152.364C66.6813 152.364 66.3556 152.456 66.0526 152.642C65.7533 152.828 65.5109 153.085 65.3253 153.415C65.1435 153.741 65.0526 154.117 65.0526 154.545V160H63.7116ZM77.6179 160V151.273H78.9134V152.636H79.027C79.2088 152.17 79.5024 151.809 79.9077 151.551C80.313 151.29 80.7997 151.159 81.3679 151.159C81.9437 151.159 82.4228 151.29 82.8054 151.551C83.1918 151.809 83.4929 152.17 83.7088 152.636H83.7997C84.0232 152.186 84.3584 151.828 84.8054 151.562C85.2524 151.294 85.7884 151.159 86.4134 151.159C87.1937 151.159 87.8319 151.403 88.3281 151.892C88.8243 152.377 89.0724 153.133 89.0724 154.159V160H87.7315V154.159C87.7315 153.515 87.5554 153.055 87.2031 152.778C86.8509 152.502 86.4361 152.364 85.9588 152.364C85.3452 152.364 84.8698 152.549 84.5327 152.92C84.1955 153.288 84.027 153.754 84.027 154.318V160H82.6634V154.023C82.6634 153.527 82.5024 153.127 82.1804 152.824C81.8584 152.517 81.4437 152.364 80.9361 152.364C80.5876 152.364 80.2618 152.456 79.9588 152.642C79.6596 152.828 79.4171 153.085 79.2315 153.415C79.0497 153.741 78.9588 154.117 78.9588 154.545V160H77.6179ZM95.1832 160.182C94.3423 160.182 93.617 159.996 93.0071 159.625C92.401 159.25 91.9332 158.727 91.6037 158.057C91.2779 157.383 91.1151 156.598 91.1151 155.705C91.1151 154.811 91.2779 154.023 91.6037 153.341C91.9332 152.655 92.3916 152.121 92.9787 151.739C93.5696 151.352 94.259 151.159 95.0469 151.159C95.5014 151.159 95.9503 151.235 96.3935 151.386C96.8366 151.538 97.2401 151.784 97.6037 152.125C97.9673 152.462 98.2571 152.909 98.473 153.466C98.6889 154.023 98.7969 154.708 98.7969 155.523V156.091H92.0696V154.932H97.4332C97.4332 154.439 97.3348 154 97.1378 153.614C96.9446 153.227 96.6681 152.922 96.3082 152.699C95.9522 152.475 95.5317 152.364 95.0469 152.364C94.5128 152.364 94.0507 152.496 93.6605 152.761C93.2741 153.023 92.9768 153.364 92.7685 153.784C92.5601 154.205 92.456 154.655 92.456 155.136V155.909C92.456 156.568 92.5696 157.127 92.7969 157.585C93.0279 158.04 93.348 158.386 93.7571 158.625C94.1662 158.86 94.6416 158.977 95.1832 158.977C95.5355 158.977 95.8537 158.928 96.1378 158.83C96.4257 158.727 96.6738 158.576 96.8821 158.375C97.0904 158.17 97.2514 157.917 97.3651 157.614L98.6605 157.977C98.5241 158.417 98.295 158.803 97.973 159.136C97.651 159.466 97.2533 159.723 96.7798 159.909C96.3063 160.091 95.7741 160.182 95.1832 160.182ZM102.178 154.75V160H100.837V151.273H102.132V152.636H102.246C102.45 152.193 102.761 151.837 103.178 151.568C103.594 151.295 104.132 151.159 104.791 151.159C105.382 151.159 105.899 151.28 106.342 151.523C106.786 151.761 107.13 152.125 107.376 152.614C107.623 153.098 107.746 153.712 107.746 154.455V160H106.405V154.545C106.405 153.86 106.227 153.326 105.871 152.943C105.515 152.557 105.026 152.364 104.405 152.364C103.977 152.364 103.594 152.456 103.257 152.642C102.924 152.828 102.661 153.098 102.467 153.455C102.274 153.811 102.178 154.242 102.178 154.75ZM113.491 160.182C112.764 160.182 112.122 159.998 111.565 159.631C111.009 159.259 110.573 158.737 110.259 158.062C109.944 157.384 109.787 156.583 109.787 155.659C109.787 154.742 109.944 153.947 110.259 153.273C110.573 152.598 111.01 152.078 111.571 151.71C112.132 151.343 112.779 151.159 113.514 151.159C114.082 151.159 114.531 151.254 114.861 151.443C115.194 151.629 115.448 151.841 115.622 152.08C115.8 152.314 115.938 152.508 116.037 152.659H116.151V148.364H117.491V160H116.196V158.659H116.037C115.938 158.818 115.798 159.019 115.616 159.261C115.435 159.5 115.175 159.714 114.838 159.903C114.501 160.089 114.052 160.182 113.491 160.182ZM113.673 158.977C114.211 158.977 114.666 158.837 115.037 158.557C115.408 158.273 115.69 157.881 115.884 157.381C116.077 156.877 116.173 156.295 116.173 155.636C116.173 154.985 116.079 154.415 115.889 153.926C115.7 153.434 115.42 153.051 115.048 152.778C114.677 152.502 114.219 152.364 113.673 152.364C113.105 152.364 112.632 152.509 112.253 152.801C111.878 153.089 111.596 153.481 111.406 153.977C111.221 154.47 111.128 155.023 111.128 155.636C111.128 156.258 111.223 156.822 111.412 157.33C111.605 157.833 111.889 158.235 112.264 158.534C112.643 158.83 113.113 158.977 113.673 158.977ZM122.702 160.205C122.149 160.205 121.647 160.1 121.196 159.892C120.745 159.68 120.387 159.375 120.122 158.977C119.857 158.576 119.724 158.091 119.724 157.523C119.724 157.023 119.823 156.617 120.02 156.307C120.217 155.992 120.48 155.746 120.81 155.568C121.139 155.39 121.503 155.258 121.901 155.17C122.302 155.08 122.705 155.008 123.111 154.955C123.641 154.886 124.071 154.835 124.401 154.801C124.734 154.763 124.976 154.701 125.128 154.614C125.283 154.527 125.361 154.375 125.361 154.159V154.114C125.361 153.553 125.207 153.117 124.901 152.807C124.598 152.496 124.137 152.341 123.52 152.341C122.88 152.341 122.378 152.481 122.014 152.761C121.651 153.042 121.395 153.341 121.247 153.659L119.974 153.205C120.202 152.674 120.505 152.261 120.884 151.966C121.266 151.667 121.683 151.458 122.134 151.341C122.588 151.22 123.035 151.159 123.474 151.159C123.755 151.159 124.077 151.193 124.44 151.261C124.808 151.326 125.162 151.46 125.503 151.665C125.848 151.869 126.134 152.178 126.361 152.591C126.588 153.004 126.702 153.557 126.702 154.25V160H125.361V158.818H125.293C125.202 159.008 125.05 159.21 124.838 159.426C124.626 159.642 124.344 159.826 123.991 159.977C123.639 160.129 123.209 160.205 122.702 160.205ZM122.906 159C123.437 159 123.884 158.896 124.247 158.688C124.615 158.479 124.891 158.21 125.077 157.881C125.266 157.551 125.361 157.205 125.361 156.841V155.614C125.304 155.682 125.179 155.744 124.986 155.801C124.796 155.854 124.577 155.902 124.327 155.943C124.08 155.981 123.84 156.015 123.605 156.045C123.374 156.072 123.187 156.095 123.043 156.114C122.694 156.159 122.368 156.233 122.065 156.335C121.766 156.434 121.524 156.583 121.338 156.784C121.156 156.981 121.065 157.25 121.065 157.591C121.065 158.057 121.238 158.409 121.582 158.648C121.931 158.883 122.372 159 122.906 159ZM132.945 151.273V152.409H128.422V151.273H132.945ZM129.74 149.182H131.081V157.5C131.081 157.879 131.136 158.163 131.246 158.352C131.359 158.538 131.503 158.663 131.678 158.727C131.856 158.788 132.043 158.818 132.24 158.818C132.388 158.818 132.509 158.811 132.604 158.795C132.698 158.777 132.774 158.761 132.831 158.75L133.104 159.955C133.013 159.989 132.886 160.023 132.723 160.057C132.56 160.095 132.354 160.114 132.104 160.114C131.725 160.114 131.354 160.032 130.99 159.869C130.63 159.706 130.331 159.458 130.092 159.125C129.857 158.792 129.74 158.371 129.74 157.864V149.182ZM134.962 160V151.273H136.303V160H134.962ZM135.643 149.818C135.382 149.818 135.157 149.729 134.967 149.551C134.782 149.373 134.689 149.159 134.689 148.909C134.689 148.659 134.782 148.445 134.967 148.267C135.157 148.089 135.382 148 135.643 148C135.905 148 136.128 148.089 136.314 148.267C136.503 148.445 136.598 148.659 136.598 148.909C136.598 149.159 136.503 149.373 136.314 149.551C136.128 149.729 135.905 149.818 135.643 149.818ZM142.304 160.182C141.516 160.182 140.825 159.994 140.23 159.619C139.639 159.244 139.177 158.72 138.844 158.045C138.514 157.371 138.349 156.583 138.349 155.682C138.349 154.773 138.514 153.979 138.844 153.301C139.177 152.623 139.639 152.097 140.23 151.722C140.825 151.347 141.516 151.159 142.304 151.159C143.092 151.159 143.781 151.347 144.372 151.722C144.967 152.097 145.429 152.623 145.759 153.301C146.092 153.979 146.259 154.773 146.259 155.682C146.259 156.583 146.092 157.371 145.759 158.045C145.429 158.72 144.967 159.244 144.372 159.619C143.781 159.994 143.092 160.182 142.304 160.182ZM142.304 158.977C142.902 158.977 143.395 158.824 143.781 158.517C144.168 158.21 144.454 157.807 144.639 157.307C144.825 156.807 144.918 156.265 144.918 155.682C144.918 155.098 144.825 154.555 144.639 154.051C144.454 153.547 144.168 153.14 143.781 152.83C143.395 152.519 142.902 152.364 142.304 152.364C141.705 152.364 141.213 152.519 140.827 152.83C140.44 153.14 140.154 153.547 139.969 154.051C139.783 154.555 139.69 155.098 139.69 155.682C139.69 156.265 139.783 156.807 139.969 157.307C140.154 157.807 140.44 158.21 140.827 158.517C141.213 158.824 141.705 158.977 142.304 158.977ZM149.646 154.75V160H148.305V151.273H149.601V152.636H149.714C149.919 152.193 150.23 151.837 150.646 151.568C151.063 151.295 151.601 151.159 152.26 151.159C152.851 151.159 153.368 151.28 153.811 151.523C154.254 151.761 154.599 152.125 154.845 152.614C155.091 153.098 155.214 153.712 155.214 154.455V160H153.874V154.545C153.874 153.86 153.696 153.326 153.339 152.943C152.983 152.557 152.495 152.364 151.874 152.364C151.446 152.364 151.063 152.456 150.726 152.642C150.393 152.828 150.129 153.098 149.936 153.455C149.743 153.811 149.646 154.242 149.646 154.75ZM158.642 160.091C158.362 160.091 158.121 159.991 157.92 159.79C157.72 159.589 157.619 159.348 157.619 159.068C157.619 158.788 157.72 158.547 157.92 158.347C158.121 158.146 158.362 158.045 158.642 158.045C158.922 158.045 159.163 158.146 159.364 158.347C159.564 158.547 159.665 158.788 159.665 159.068C159.665 159.254 159.617 159.424 159.523 159.58C159.432 159.735 159.309 159.86 159.153 159.955C159.002 160.045 158.831 160.091 158.642 160.091ZM163.048 160.091C162.768 160.091 162.527 159.991 162.327 159.79C162.126 159.589 162.026 159.348 162.026 159.068C162.026 158.788 162.126 158.547 162.327 158.347C162.527 158.146 162.768 158.045 163.048 158.045C163.329 158.045 163.569 158.146 163.77 158.347C163.971 158.547 164.071 158.788 164.071 159.068C164.071 159.254 164.024 159.424 163.929 159.58C163.838 159.735 163.715 159.86 163.56 159.955C163.408 160.045 163.238 160.091 163.048 160.091ZM167.455 160.091C167.174 160.091 166.934 159.991 166.733 159.79C166.532 159.589 166.432 159.348 166.432 159.068C166.432 158.788 166.532 158.547 166.733 158.347C166.934 158.146 167.174 158.045 167.455 158.045C167.735 158.045 167.975 158.146 168.176 158.347C168.377 158.547 168.477 158.788 168.477 159.068C168.477 159.254 168.43 159.424 168.335 159.58C168.244 159.735 168.121 159.86 167.966 159.955C167.814 160.045 167.644 160.091 167.455 160.091Z" fill="#A8A8A8"/>
<rect x="29" y="192" width="128" height="8" rx="4" fill="#F4F4F4"/>
<rect x="29" y="192" width="64" height="8" rx="4" fill="#4589FF"/>
<path d="M171.972 190.273V199H170.915V191.381H170.864L168.733 192.795V191.722L170.915 190.273H171.972ZM177.584 189.864L174.771 200.312H173.851L176.663 189.864H177.584ZM178.759 199V198.233L181.64 195.08C181.978 194.71 182.256 194.389 182.475 194.116C182.694 193.841 182.855 193.582 182.961 193.341C183.069 193.097 183.123 192.841 183.123 192.574C183.123 192.267 183.049 192.001 182.901 191.777C182.756 191.553 182.557 191.379 182.304 191.257C182.051 191.135 181.767 191.074 181.452 191.074C181.117 191.074 180.824 191.143 180.574 191.283C180.327 191.419 180.135 191.611 179.999 191.858C179.865 192.105 179.799 192.395 179.799 192.727H178.793C178.793 192.216 178.911 191.767 179.147 191.381C179.382 190.994 179.703 190.693 180.11 190.477C180.519 190.261 180.978 190.153 181.486 190.153C181.998 190.153 182.451 190.261 182.846 190.477C183.24 190.693 183.55 190.984 183.775 191.351C183.999 191.717 184.111 192.125 184.111 192.574C184.111 192.895 184.053 193.209 183.936 193.516C183.823 193.82 183.624 194.159 183.34 194.534C183.059 194.906 182.668 195.361 182.168 195.898L180.208 197.994V198.062H184.265V199H178.759ZM194.326 192.455C194.275 192.023 194.067 191.688 193.703 191.449C193.34 191.21 192.894 191.091 192.365 191.091C191.979 191.091 191.641 191.153 191.351 191.278C191.064 191.403 190.84 191.575 190.678 191.794C190.519 192.013 190.439 192.261 190.439 192.54C190.439 192.773 190.495 192.973 190.605 193.141C190.719 193.305 190.864 193.443 191.04 193.554C191.216 193.662 191.401 193.751 191.594 193.822C191.787 193.891 191.965 193.946 192.127 193.989L193.013 194.227C193.24 194.287 193.493 194.369 193.772 194.474C194.053 194.58 194.321 194.723 194.577 194.905C194.836 195.084 195.049 195.314 195.216 195.595C195.384 195.876 195.468 196.222 195.468 196.631C195.468 197.102 195.344 197.528 195.097 197.909C194.853 198.29 194.495 198.592 194.023 198.817C193.554 199.041 192.985 199.153 192.314 199.153C191.689 199.153 191.148 199.053 190.691 198.851C190.236 198.649 189.878 198.368 189.617 198.007C189.358 197.646 189.212 197.227 189.178 196.75H190.269C190.297 197.08 190.408 197.352 190.601 197.568C190.797 197.781 191.044 197.94 191.343 198.045C191.644 198.148 191.968 198.199 192.314 198.199C192.718 198.199 193.08 198.134 193.401 198.003C193.722 197.869 193.976 197.685 194.164 197.449C194.351 197.21 194.445 196.932 194.445 196.614C194.445 196.324 194.364 196.088 194.202 195.906C194.04 195.724 193.827 195.577 193.563 195.463C193.299 195.349 193.013 195.25 192.706 195.165L191.632 194.858C190.951 194.662 190.411 194.382 190.013 194.018C189.615 193.655 189.417 193.179 189.417 192.591C189.417 192.102 189.549 191.676 189.813 191.312C190.08 190.946 190.438 190.662 190.887 190.46C191.338 190.256 191.843 190.153 192.4 190.153C192.962 190.153 193.462 190.254 193.9 190.456C194.337 190.655 194.684 190.928 194.939 191.274C195.198 191.621 195.334 192.014 195.348 192.455H194.326ZM201.194 196.324V192.455H202.2V199H201.194V197.892H201.126C200.972 198.224 200.734 198.507 200.41 198.74C200.086 198.97 199.677 199.085 199.183 199.085C198.773 199.085 198.41 198.996 198.092 198.817C197.773 198.635 197.523 198.362 197.342 197.999C197.16 197.632 197.069 197.17 197.069 196.614V192.455H198.075V196.545C198.075 197.023 198.208 197.403 198.475 197.688C198.745 197.972 199.089 198.114 199.506 198.114C199.756 198.114 200.011 198.05 200.269 197.922C200.531 197.794 200.749 197.598 200.925 197.334C201.104 197.07 201.194 196.733 201.194 196.324ZM204.178 199V190.273H205.184V193.494H205.269C205.343 193.381 205.445 193.236 205.576 193.06C205.709 192.881 205.9 192.722 206.147 192.582C206.397 192.44 206.735 192.369 207.161 192.369C207.712 192.369 208.198 192.507 208.618 192.783C209.039 193.058 209.367 193.449 209.603 193.955C209.838 194.46 209.956 195.057 209.956 195.744C209.956 196.438 209.838 197.038 209.603 197.547C209.367 198.053 209.04 198.445 208.623 198.723C208.205 198.999 207.723 199.136 207.178 199.136C206.757 199.136 206.421 199.067 206.168 198.928C205.915 198.786 205.721 198.625 205.584 198.446C205.448 198.264 205.343 198.114 205.269 197.994H205.15V199H204.178ZM205.167 195.727C205.167 196.222 205.239 196.658 205.384 197.036C205.529 197.411 205.74 197.705 206.019 197.918C206.297 198.128 206.638 198.233 207.042 198.233C207.462 198.233 207.813 198.122 208.094 197.901C208.378 197.676 208.591 197.375 208.733 196.997C208.878 196.616 208.951 196.193 208.951 195.727C208.951 195.267 208.88 194.852 208.738 194.483C208.598 194.111 208.387 193.817 208.103 193.601C207.821 193.382 207.468 193.273 207.042 193.273C206.632 193.273 206.289 193.376 206.01 193.584C205.732 193.788 205.522 194.075 205.38 194.445C205.238 194.811 205.167 195.239 205.167 195.727ZM214.341 192.455V193.307H210.949V192.455H214.341ZM211.938 190.886H212.944V197.125C212.944 197.409 212.985 197.622 213.067 197.764C213.152 197.903 213.26 197.997 213.391 198.045C213.525 198.091 213.665 198.114 213.813 198.114C213.924 198.114 214.015 198.108 214.086 198.097C214.157 198.082 214.213 198.071 214.256 198.062L214.461 198.966C214.392 198.991 214.297 199.017 214.175 199.043C214.053 199.071 213.898 199.085 213.711 199.085C213.426 199.085 213.148 199.024 212.875 198.902C212.605 198.78 212.381 198.594 212.202 198.344C212.026 198.094 211.938 197.778 211.938 197.398V190.886ZM217.78 199.153C217.365 199.153 216.989 199.075 216.651 198.919C216.313 198.76 216.044 198.531 215.846 198.233C215.647 197.932 215.547 197.568 215.547 197.142C215.547 196.767 215.621 196.463 215.769 196.23C215.917 195.994 216.114 195.81 216.361 195.676C216.608 195.543 216.881 195.443 217.179 195.378C217.48 195.31 217.783 195.256 218.087 195.216C218.485 195.165 218.807 195.126 219.054 195.101C219.304 195.072 219.486 195.026 219.6 194.96C219.716 194.895 219.775 194.781 219.775 194.619V194.585C219.775 194.165 219.659 193.838 219.429 193.605C219.202 193.372 218.857 193.256 218.394 193.256C217.914 193.256 217.537 193.361 217.265 193.571C216.992 193.781 216.8 194.006 216.689 194.244L215.735 193.903C215.905 193.506 216.132 193.196 216.417 192.974C216.703 192.75 217.016 192.594 217.354 192.506C217.695 192.415 218.03 192.369 218.36 192.369C218.57 192.369 218.811 192.395 219.084 192.446C219.36 192.494 219.625 192.595 219.881 192.749C220.14 192.902 220.354 193.134 220.525 193.443C220.695 193.753 220.78 194.168 220.78 194.688V199H219.775V198.114H219.723C219.655 198.256 219.542 198.408 219.382 198.57C219.223 198.732 219.012 198.869 218.748 198.983C218.483 199.097 218.161 199.153 217.78 199.153ZM217.934 198.25C218.331 198.25 218.667 198.172 218.939 198.016C219.215 197.859 219.422 197.658 219.561 197.411C219.703 197.163 219.775 196.903 219.775 196.631V195.71C219.732 195.761 219.638 195.808 219.493 195.851C219.351 195.891 219.186 195.926 218.999 195.957C218.814 195.986 218.634 196.011 218.458 196.034C218.284 196.054 218.144 196.071 218.036 196.085C217.775 196.119 217.53 196.175 217.303 196.251C217.078 196.325 216.897 196.437 216.757 196.588C216.621 196.736 216.553 196.937 216.553 197.193C216.553 197.543 216.682 197.807 216.941 197.986C217.202 198.162 217.533 198.25 217.934 198.25ZM227.252 193.92L226.349 194.176C226.292 194.026 226.208 193.879 226.097 193.737C225.989 193.592 225.842 193.473 225.654 193.379C225.467 193.286 225.227 193.239 224.934 193.239C224.533 193.239 224.2 193.331 223.933 193.516C223.668 193.697 223.536 193.929 223.536 194.21C223.536 194.46 223.627 194.658 223.809 194.803C223.991 194.947 224.275 195.068 224.661 195.165L225.633 195.403C226.218 195.545 226.654 195.763 226.941 196.055C227.228 196.345 227.371 196.719 227.371 197.176C227.371 197.551 227.263 197.886 227.048 198.182C226.835 198.477 226.536 198.71 226.153 198.881C225.769 199.051 225.323 199.136 224.815 199.136C224.147 199.136 223.594 198.991 223.157 198.702C222.719 198.412 222.442 197.989 222.326 197.432L223.281 197.193C223.371 197.545 223.543 197.81 223.796 197.986C224.052 198.162 224.386 198.25 224.798 198.25C225.266 198.25 225.638 198.151 225.914 197.952C226.192 197.75 226.332 197.509 226.332 197.227C226.332 197 226.252 196.81 226.093 196.656C225.934 196.5 225.69 196.384 225.36 196.307L224.269 196.051C223.67 195.909 223.229 195.689 222.948 195.391C222.67 195.089 222.531 194.713 222.531 194.261C222.531 193.892 222.634 193.565 222.842 193.281C223.052 192.997 223.337 192.774 223.698 192.612C224.062 192.45 224.474 192.369 224.934 192.369C225.582 192.369 226.09 192.511 226.46 192.795C226.832 193.08 227.096 193.455 227.252 193.92ZM229.823 196.614L229.806 195.369H230.01L232.874 192.455H234.118L231.067 195.54H230.982L229.823 196.614ZM228.885 199V190.273H229.891V199H228.885ZM233.044 199L230.488 195.761L231.203 195.062L234.323 199H233.044ZM240.049 193.92L239.146 194.176C239.089 194.026 239.005 193.879 238.894 193.737C238.786 193.592 238.638 193.473 238.451 193.379C238.263 193.286 238.023 193.239 237.731 193.239C237.33 193.239 236.996 193.331 236.729 193.516C236.465 193.697 236.333 193.929 236.333 194.21C236.333 194.46 236.424 194.658 236.606 194.803C236.788 194.947 237.072 195.068 237.458 195.165L238.43 195.403C239.015 195.545 239.451 195.763 239.738 196.055C240.025 196.345 240.168 196.719 240.168 197.176C240.168 197.551 240.06 197.886 239.844 198.182C239.631 198.477 239.333 198.71 238.95 198.881C238.566 199.051 238.12 199.136 237.612 199.136C236.944 199.136 236.391 198.991 235.954 198.702C235.516 198.412 235.239 197.989 235.123 197.432L236.077 197.193C236.168 197.545 236.34 197.81 236.593 197.986C236.849 198.162 237.183 198.25 237.594 198.25C238.063 198.25 238.435 198.151 238.711 197.952C238.989 197.75 239.129 197.509 239.129 197.227C239.129 197 239.049 196.81 238.89 196.656C238.731 196.5 238.487 196.384 238.157 196.307L237.066 196.051C236.467 195.909 236.026 195.689 235.745 195.391C235.467 195.089 235.327 194.713 235.327 194.261C235.327 193.892 235.431 193.565 235.638 193.281C235.849 192.997 236.134 192.774 236.495 192.612C236.859 192.45 237.271 192.369 237.731 192.369C238.379 192.369 238.887 192.511 239.256 192.795C239.629 193.08 239.893 193.455 240.049 193.92Z" fill="black"/>
<rect x="29" y="228" width="32" height="32" rx="16" fill="white"/>
<circle cx="45" cy="244" r="15.5" fill="#FF7A00" stroke="white"/>
<path d="M37.0222 248.19H35.9143L39.1188 239.463H40.2097L43.4143 248.19H42.3063L39.6984 240.844H39.6302L37.0222 248.19ZM37.4313 244.781H41.8972V245.719H37.4313V244.781ZM44.7737 239.463H46.035L49.0009 246.707H49.1032L52.0691 239.463H53.3305V248.19H52.3418V241.56H52.2566L49.5293 248.19H48.5748L45.8475 241.56H45.7623V248.19H44.7737V239.463Z" fill="white"/>
<rect x="53" y="228" width="32" height="32" rx="16" fill="white"/>
<circle cx="69" cy="244" r="15.5" fill="#1FD7C1" stroke="white"/>
<path d="M61.133 248.19V239.463H66.4001V240.401H62.1898V243.35H66.1273V244.287H62.1898V247.253H66.4683V248.19H61.133ZM68.3049 239.463H69.5663L72.5322 246.707H72.6345L75.6004 239.463H76.8617V248.19H75.8731V241.56H75.7879L73.0606 248.19H72.106L69.3788 241.56H69.2935V248.19H68.3049V239.463Z" fill="white"/>
<rect x="77" y="228" width="32" height="32" rx="16" fill="white"/>
<circle cx="93" cy="244" r="15.5" fill="#462F8A" stroke="white"/>
<path d="M84.8166 239.463H86.078L89.0439 246.707H89.1462L92.1121 239.463H93.3734V248.19H92.3848V241.56H92.2996L89.5723 248.19H88.6178L85.8905 241.56H85.8053V248.19H84.8166V239.463ZM95.4924 248.19V239.463H98.5435C99.1515 239.463 99.6529 239.568 100.048 239.778C100.443 239.986 100.737 240.266 100.93 240.618C101.123 240.967 101.22 241.355 101.22 241.781C101.22 242.156 101.153 242.466 101.019 242.71C100.889 242.955 100.715 243.148 100.5 243.29C100.286 243.432 100.055 243.537 99.8049 243.605V243.69C100.072 243.707 100.34 243.801 100.61 243.972C100.88 244.142 101.106 244.386 101.288 244.705C101.47 245.023 101.561 245.412 101.561 245.872C101.561 246.31 101.461 246.703 101.262 247.053C101.063 247.402 100.75 247.679 100.321 247.884C99.8916 248.088 99.3333 248.19 98.6458 248.19H95.4924ZM96.5492 247.253H98.6458C99.3362 247.253 99.8262 247.119 100.116 246.852C100.409 246.582 100.555 246.256 100.555 245.872C100.555 245.577 100.48 245.304 100.329 245.054C100.178 244.801 99.964 244.6 99.6856 244.449C99.4072 244.296 99.0776 244.219 98.697 244.219H96.5492V247.253ZM96.5492 243.298H98.5095C98.8276 243.298 99.1146 243.236 99.3702 243.111C99.6288 242.986 99.8333 242.81 99.9839 242.582C100.137 242.355 100.214 242.088 100.214 241.781C100.214 241.398 100.08 241.073 99.8134 240.805C99.5464 240.536 99.1231 240.401 98.5435 240.401H96.5492V243.298Z" fill="white"/>
<g clip-path="url(#clip0_212971_2563)">
<path d="M240.568 247.167H225.432C225.184 247.167 224.948 247.068 224.773 246.892C224.598 246.716 224.5 246.477 224.5 246.228C224.5 245.979 224.598 245.741 224.773 245.565C224.948 245.389 225.184 245.29 225.432 245.29H240.568C240.816 245.29 241.052 245.389 241.227 245.565C241.402 245.741 241.5 245.979 241.5 246.228C241.5 246.477 241.402 246.716 241.227 246.892C241.052 247.068 240.816 247.167 240.568 247.167Z" fill="#FFA800"/>
<path d="M240.568 242.71H225.432C225.184 242.71 224.948 242.611 224.773 242.435C224.598 242.259 224.5 242.02 224.5 241.772C224.5 241.523 224.598 241.284 224.773 241.108C224.948 240.932 225.184 240.833 225.432 240.833H240.568C240.816 240.833 241.052 240.932 241.227 241.108C241.402 241.284 241.5 241.523 241.5 241.772C241.5 242.02 241.402 242.259 241.227 242.435C241.052 242.611 240.816 242.71 240.568 242.71Z" fill="#FFA800"/>
</g>
</g>
<defs>
<filter id="filter0_d_212971_2563" x="0" y="0" width="278" height="289" filterUnits="userSpaceOnUse" color-interpolation-filters="sRGB">
<feFlood flood-opacity="0" result="BackgroundImageFix"/>
<feColorMatrix in="SourceAlpha" type="matrix" values="0 0 0 0 0 0 0 0 0 0 0 0 0 0 0 0 0 0 127 0" result="hardAlpha"/>
<feMorphology radius="3" operator="dilate" in="SourceAlpha" result="effect1_dropShadow_212971_2563"/>
<feOffset/>
<feGaussianBlur stdDeviation="5"/>
<feComposite in2="hardAlpha" operator="out"/>
<feColorMatrix type="matrix" values="0 0 0 0 0 0 0 0 0 0 0 0 0 0 0 0 0 0 0.08 0"/>
<feBlend mode="normal" in2="BackgroundImageFix" result="effect1_dropShadow_212971_2563"/>
<feBlend mode="normal" in="SourceGraphic" in2="effect1_dropShadow_212971_2563" result="shape"/>
</filter>
<clipPath id="clip0_212971_2563">
<rect width="17" height="6.33333" fill="white" transform="translate(224.5 240.833)"/>
</clipPath>
</defs>
</svg>
